<?xml version="1.0" encoding="utf-8"?>
<!-- Generator: Adobe Illustrator 21.0.2, SVG Export Plug-In . SVG Version: 6.00 Build 0)  -->
<svg version="1.1" id="Layer_1" xmlns="http://www.w3.org/2000/svg" xmlns:xlink="http://www.w3.org/1999/xlink" x="0px" y="0px"
	 viewBox="0 0 500 508" style="enable-background:new 0 0 500 508;" xml:space="preserve">
<style type="text/css">
	.st0{fill:#F49AC2;}
	.st1{fill:#7EA7D8;}
	.st2{fill:#FFF79A;}
	.st3{fill:#F8977A;}
	.st4{fill:#FDC68A;}
	.st5{fill:#FFF7BD;}
	.st6{fill:#7FF8D5;}
	.st7{fill:#82CA9D;}
	.st8{fill:#6ECFF6;}
	.st9{fill:#C4DF9B;}
	.st10{fill:#7EA6D8;}
	.st11{fill:#A187BE;}
	.st12{fill:#FF8088;}
	.st13{fill:#BC8DBF;}
	.st14{fill:#FFFFFF;}
	.st15{fill:#153F00;}
	.st16{fill:#287D0F;}
	.st17{fill:#50FF2E;}
	.st18{fill:#1F5E08;}
	.st19{fill:#50FE2E;}
	.st20{fill:#00FF47;}
	.st21{fill:#69FF4B;}
	.st22{fill:#48E528;}
	.st23{fill:#7EB7D7;}
	.st24{fill:#FFFFA6;}
	.st25{fill:#FFFF58;}
	.st26{fill:#E5FEAF;}
	.st27{fill:#EAFEAE;}
	.st28{fill:#FFFFA5;}
	.st29{fill:#7FDBD5;}
</style>
<path class="st0" d="M402.7,12.7c4.3-3.2,7.1-7.9,10.7-11.9c0.9,7,1.7,14.3-0.6,21.1c-1.5,5.6-5.1,10.2-8.3,14.9
	c3.2,0.5,6.4,0.9,9.6,1.3c-0.7,1.3-1.3,2.6-2,3.9c-5.3-0.7-10.7-1.2-16-1.9c4.1-5.6,9.4-10.5,11.9-17.1c1.5-3.5,1.7-7.3,1.9-11.1
	c-8.1,8-19,12.4-30.1,14.3c-26.2,5-53.8,6.2-77.9,18.5c-1.1-1.1-2.3-2.1-3.5-3.2c6-2.7,12.2-5.3,18.5-7.3c19.9-6.5,41-8,61.4-11.9
	C387.1,20.6,395.8,18.1,402.7,12.7z"/>
<path class="st1" d="M426.9,14c1.5-2.6,3.6-4.7,5.9-6.6c0.6,0.4,1.9,1.2,2.5,1.6c0.8,11.2-2.1,22.2-3,33.3c-0.2,1.4-0.3,2.8-0.5,4.2
	c-0.6,4.8-1.2,9.6-1.7,14.4c-0.6,4.8-1.2,9.5-1.6,14.4c3.9-0.7,7.8-1.7,11.7-2.5c-1,1.8-2.1,3.9-4.4,4.4c-7.5,2.3-15.8,3.4-23.5,1.4
	c-7.1-1.8-13.5-5.9-18.5-11.3c-1.8-1.6-1.6-4.1-2-6.2c2.4,2,4.8,4.1,7.2,6.2c2.3-3.8,4.4-7.7,6.4-11.7c2.3-4.4,4.5-8.9,6.8-13.4
	c0.6-1.3,1.3-2.6,2-3.9C418.2,30,422.2,21.8,426.9,14z"/>
<path class="st2" d="M380,26.2c11.1-1.9,21.9-6.3,30.1-14.3c-0.2,3.8-0.4,7.6-1.9,11.1c-2.5,6.6-7.8,11.5-11.9,17.1
	c5.3,0.6,10.7,1.2,16,1.9c-2.2,4.5-4.5,9-6.8,13.4c-21.3-3.4-44-2.1-63.6,7.5c-6.6,3.1-12.3,7.6-18.4,11.7
	C318.2,63.4,311,53.1,302,44.7C326.2,32.4,353.8,31.2,380,26.2z"/>
<path class="st3" d="M426.3,22.2c1.8-3.3,3.3-6.7,6-9.4c-0.5,3.6,0,7.5-1.7,10.8C429.1,25.8,427.3,23.4,426.3,22.2z"/>
<path class="st4" d="M422,30.9c0.5-2.4,1.9-4.5,3-6.6c1,0.8,1.9,1.5,2.9,2.2c0.7,0,2.2-0.1,2.9-0.2c-0.5,2.6,0,6.2-2.8,7.5
	C425.7,35.3,422.8,33.2,422,30.9z"/>
<path class="st5" d="M417.4,39.3c1-2.1,2.1-4.1,3.2-6.1c2.3,2.6,5.7,4,9.1,2.4c-0.6,3.9-0.1,8.7-3.7,11.2
	C421.6,50.4,414.1,44.1,417.4,39.3z"/>
<path class="st1" d="M290.2,42.2c2.5-1.6,5.6-0.8,8.4-0.7c1.1,1.1,2.3,2.2,3.5,3.2c9,8.4,16.2,18.7,21.4,29.8c0.5,1.1,1,2.3,1.5,3.4
	c2.4,5.8,4.3,11.8,5.2,18c0.2,1.4,0.4,2.8,0.5,4.3c-0.5,3.1-2.1,5.8-4,8.3c0.5-12.5-3.4-24.8-9.1-35.8c-4.9-9.6-11.3-18.5-19.2-25.8
	c-1.6-1.7-4.3-2.3-6.2-0.8c-3.9,2.9-6.2,7.4-8.1,11.7c-6.6,15.9-8.5,33.3-7.5,50.3c1,13.9,4.9,28.5,15.2,38.4c4.1,4.3,9.7,6.6,15,9
	c-4.2,3.1-9.4,0.6-13.5-1.5c-2-1.8-4-3.5-6-5.3c-9.5-10.4-13.1-24.5-15-38.1c-3.1,4.2-4.1,9.4-5,14.5c-1.4,9.3-0.6,18.8,0.4,28.1
	c2.9,24.1,8.8,47.8,11.5,71.9c0.2,2.5,0.2,5,0.3,7.5c-5.5-13.8-14.7-25.8-20.5-39.4c-3.9-9.3-7.4-19-7.9-29.1
	c1.9-21.1,4.7-42.9,15.3-61.7c2-4.1,5.9-7.5,6-12.4c0.6-10.8,3.1-21.4,6.5-31.7c1.7-3.3,3.2-6.6,4.9-9.9
	C285.8,46.2,287.6,43.8,290.2,42.2z"/>
<path class="st0" d="M431.8,46.4c0.2-1.4,0.3-2.8,0.5-4.2c14.6,4.1,28.4,11.4,39.3,22.1C483.8,76,491.3,91.8,495,108
	c3.6,15,3.9,30.4,5,45.7v5.4c-14.4-13.7-28.5-27.9-45.1-38.9c-0.5-0.4-1.6-1.1-2.2-1.5c-1.4-1.1-2.9-2.2-4.6-2.8
	c-0.6-0.3-1.8-0.9-2.4-1.2c-1.7-1-3.4-1.9-5.1-2.8c-0.7-0.3-1.3-0.7-2-1c-12.4-5.9-25.5-10.4-38.6-14.4c9.3,10.8,16.5,23.6,19,37.8
	c-6.7-4-13.1-8.5-20-12.2c-21-11.7-44.4-19.5-68.4-21.8c-0.1-1.4-0.3-2.9-0.5-4.3c29.2,2.7,57.2,13.5,82,29
	c-2.3-7.6-6.5-14.5-11.3-20.8c-4.4-5.7-9.8-10.4-14.1-16.2c3.9,1,7.8,2.2,11.6,3.5c17.6,5.7,35.4,11.4,51.5,20.7
	c10.9,6.4,20.9,14.2,30.3,22.7c5.2,4.4,9.8,9.4,15.1,13.6c-0.1-2.3-0.2-4.6-0.3-6.9c-0.8-12.5-2-25.1-5.1-37.3
	c-2.4-9.4-6.8-18.1-11.9-26.4l-0.4-0.1C466.9,62,449.8,51.8,431.8,46.4z"/>
<path class="st6" d="M292,46c1.9-1.5,4.6-0.9,6.2,0.8c8,7.3,14.4,16.2,19.2,25.8c5.6,11.1,9.6,23.3,9.1,35.8c1.9-2.4,3.5-5.2,4-8.3
	c24,2.4,47.3,10.1,68.4,21.8c6.9,3.7,13.3,8.2,20,12.2c-2.5-14.2-9.6-27-19-37.8c13.1,4.1,26.2,8.5,38.6,14.4
	c-5.9,7.4-7.1,17.2-7.4,26.3c-0.1,0.5-0.3,1.5-0.4,2c-1.5,11-0.6,22.4,2.7,33c0.4,1.4,0.8,2.8,1.1,4.1c-0.1,0.4-0.2,1.3-0.2,1.7
	c-1.2,3.2-1.6,6.9,0.8,9.7c5.3,7.6,15.2,8.5,23.3,11.2c-1.3,7.2-4.8,13.8-9.2,19.5c-1.3,1.5-2.5,3.1-4.4,4c-6,0.5-13.2-1.7-16-7.5
	c-2.1-3.6-1.8-8.4-4.8-11.6c-1.1,6.3,1.2,13.1,5.9,17.5c3.2,3,7.7,3.7,11.9,4.7c-12.7,9.6-29.3,12.3-44.9,11.7
	c-16.7-0.7-33.1-4.8-48.8-10.5c-4.6-1.5-8.5-4.4-12.5-6.9c0.7,2.4,1.5,5.1,3.6,6.7c4.9,4.1,11.4,5.2,17,7.8
	c4.2,20.9,6.9,42.6,2.8,63.7c-2.8,15-10.1,29.4-21.8,39.3c-11,9.3-24.9,14.4-38.9,17c0.2-5.5-0.1-11.3-3.5-15.9
	c-0.9,10.1-0.8,20.2-1,30.4c-0.6,38.6,3.9,77.4,15.5,114.3c1.3,4.3,3.1,8.4,3.7,12.9c-2.2,4.4-7.7,5.2-12,6.3
	c-12.6,2.2-25.9,1.8-38.3-1.6c-3.8-1.3-8.7-2.8-9.7-7.2c-6.2-26.4-9.2-53.7-6.2-80.7c2.6-22.3,10.6-43.5,16.8-65
	c1.1-3.8,0.8-7.7-0.2-11.5c-2.2,4.3-3.3,9-4.9,13.5c-8.8-2.5-17-6.8-24.5-11.8c2.3-9.1,4.8-18.4,3.6-27.9c-2.1,4.3-2.6,9.1-3.9,13.6
	c-1.8,6.7-3.7,13.4-6.1,19.9c-6.5,17.4-16,33.8-20,52.1c-5.3,23.7-2.4,48.3,2.4,71.9c1.2,6.4,3.3,12.6,4.2,19.1
	c0.8,4.6-3.5,7.8-7.4,9c-10.7,3.5-22.3,2.6-33.2,0.2c-4.3-1-8.9-1.9-12.5-4.6c-1.5-1-1.3-3.1-1.7-4.7c-1.5-13.3-2.7-26.6-1.8-40
	c1.6-29,9.4-57.3,18.1-84.8c1.1-3.1,1.6-6.8,3.9-9.3c2.8-1.2,5.7,0.1,8.5,0.6c0.2,4,0.5,7.9,1,11.8c2.1-2.7,3.8-5.9,3.3-9.4
	c-1-17.6-9.1-33.8-12.2-51.1c0.8,0,2.5,0.1,3.4,0.1c-0.2-1.1-0.5-2.2-0.8-3.3c4.6,5.4,11.9,7.6,18.8,7.9c10.2,0.6,20.8-1.4,29.3-7.4
	c3.9-2.8,7.3-7.3,6.9-12.3c-0.6-5.2-5.1-8.9-9.7-10.7c-9.9-3.9-21-3.1-30.9,0.1c-6.8,2.3-13.6,6.6-16.3,13.6
	c-0.5-0.5-1.4-1.4-1.9-1.8c0.4-4.3,0.5-8.7,2.1-12.8c4.4-13.9,10.7-28.3,23-36.9c13.2-9,30.8-8.1,45-1.8c10.6,4.7,19.5,12.5,30.2,17
	c0,9-2,18-6.1,26c-5.7,11.1-14.2,20.5-20.5,31.2c12.3,2.3,25.1,0,36.3-5.6c15.6-7.7,28.6-21.1,34.7-37.5c5.1-13.6,4.9-28.8,0.8-42.6
	c-3.1-10.6-8.4-20.3-14.3-29.5c4.5,0.7,9.1,1.3,13.5,0.1c4.3-1,7.9-3.6,11.3-6.3c-12-7-24.4-14.1-33.5-24.9c-3.5-4-6.1-8.8-8.5-13.5
	c4.1,2.1,9.2,4.6,13.5,1.5c-5.4-2.3-10.9-4.7-15-9c-10.4-9.9-14.2-24.5-15.2-38.4c-1-17,0.9-34.5,7.5-50.3
	C285.8,53.4,288.1,48.9,292,46z"/>
<path class="st7" d="M411.5,52c0.5-2.6,2-4.9,3.4-7.1c1.9,1.9,3.5,4.3,6.2,5c2.4,1,4.8-0.6,6.9-1.5c-0.4,2.7,0,5.8-1.4,8.2
	C421.7,61,413,58.4,411.5,52z"/>
<path class="st2" d="M430.1,60.8c0.6-4.8,1.2-9.6,1.7-14.4c18,5.3,35.1,15.5,45.7,31.3c-4.6-0.4-8.6-2.9-12.8-4.6
	C453.5,68.4,442,64,430.1,60.8z"/>
<path class="st0" d="M254.3,85.3c6.4-14.6,16.9-27.2,29.5-36.9c-1.7,3.3-3.2,6.6-4.9,9.9c-12.4,10.8-21,25.6-25.4,41.3
	c-5.3,18.6-5.7,38.2-3.9,57.3c0.2,2.4,0.9,4.7,1.5,7.1c0.5,10.1,4,19.8,7.9,29.1c5.8,13.7,15,25.6,20.5,39.4
	c4.3,11.8,5.5,24.7,3,37.1c-1.9,9-6,17.2-11.2,24.7c-3.5,5.4-7.9,10.1-10.7,15.9c12.5,1.1,24.8-3.8,35-10.6
	c14.3-9.8,25.3-25.1,27.4-42.6c2.2-16-2.4-32.1-10-46.1c-3.7-7.1-8.7-13.3-12.9-20.1c8.7,2.5,18.8,7.2,27.3,1.7
	c-13.3-7.7-26.5-16.9-34.5-30.4c-2.6-4.2-4.5-8.8-5.7-13.6c2,1.8,4,3.5,6,5.3c2.4,4.8,4.9,9.5,8.5,13.5
	c9.1,10.8,21.5,17.9,33.5,24.9c-3.4,2.7-7,5.4-11.3,6.3c-4.4,1.2-9.1,0.6-13.5-0.1c6,9.2,11.3,19,14.3,29.5
	c4.1,13.8,4.3,29-0.8,42.6c-6.1,16.4-19.1,29.8-34.7,37.5c-11.1,5.6-23.9,7.9-36.3,5.6c6.4-10.7,14.8-20.1,20.5-31.2
	c4.2-8,6.2-17,6.1-26c-0.1-1.6-0.2-3.2-0.4-4.8c-0.4-19.4-13.3-34.9-21.5-51.5c-11.7-22.8-14.3-49-12.9-74.2
	C245.9,112.1,248.6,98.1,254.3,85.3z"/>
<path class="st4" d="M341.8,62.9c19.6-9.7,42.3-10.9,63.6-7.5c-2,4-4.1,7.9-6.4,11.7c-2.4-2-4.8-4.1-7.2-6.2c0.4,2.1,0.2,4.6,2,6.2
	c5,5.3,11.4,9.5,18.5,11.3c7.7,2,16,0.9,23.5-1.4c2.2-0.5,3.3-2.6,4.4-4.4c-3.9,0.9-7.8,1.8-11.7,2.5c0.4-4.8,1-9.6,1.6-14.4
	c11.9,3.2,23.4,7.6,34.7,12.3c4.2,1.7,8.2,4.2,12.8,4.6l0.4,0.1c5,8.3,9.4,17,11.9,26.4c3.1,12.2,4.3,24.8,5.1,37.3
	c-5.4-5-10.1-10.8-15.6-15.8c-20.8-20.1-45.1-37.3-72.9-46.2c-26.2-8.5-54.8-8.3-81.5-1.7c-0.5-1.1-1-2.3-1.5-3.4
	C329.5,70.5,335.2,66,341.8,62.9z"/>
<path class="st8" d="M406.2,63c0-3.1,2.2-5.6,3.6-8.2c2.1,2.1,4.1,4.8,7.1,5.6c3.3,1.1,6.7,0,9.9-0.9c-0.6,2.9-0.1,6.7-2.6,8.8
	C418.2,71.8,409.5,69.1,406.2,63z"/>
<path class="st9" d="M253.5,99.6c4.5-15.8,13.1-30.5,25.4-41.3c-3.5,10.2-5.9,20.8-6.5,31.7c-0.1,4.8-4,8.3-6,12.4
	c-10.7,18.8-13.4,40.5-15.3,61.7c-0.6-2.4-1.2-4.7-1.5-7.1C247.8,137.8,248.2,118.2,253.5,99.6z"/>
<path class="st10" d="M287.7,77.8c2-6.4,3.1-13.7,8.4-18.4c-3.5,13.1-8.5,25.9-9.4,39.5c-0.8,11.4,3.1,23.1,10.9,31.5
	c1.8,1.9,3.7,3.6,5.5,5.5c-7.4-1.1-11.7-8-14.9-14.1C281.5,108.2,283.7,92.1,287.7,77.8z"/>
<path class="st11" d="M404.2,64.9c2.9,2.5,5.8,5.4,9.7,6.3c3.8,1.2,7.8,0.5,11.4-1c-0.2,1.8-0.3,3.6-0.4,5.4
	c-8.1,0.9-16.8-1.1-23-6.6C402.6,67.7,403.4,66.3,404.2,64.9z"/>
<path class="st12" d="M325,77.9c26.6-6.6,55.2-6.9,81.5,1.7c27.8,8.9,52.1,26,72.9,46.2c5.5,5,10.2,10.8,15.6,15.8
	c0.1,2.3,0.2,4.6,0.3,6.9c-5.3-4.2-9.8-9.3-15.1-13.6c-9.4-8.5-19.4-16.2-30.3-22.7c-16.1-9.3-33.9-14.9-51.5-20.7
	c-3.8-1.3-7.7-2.6-11.6-3.5c4.2,5.8,9.7,10.5,14.1,16.2c4.8,6.2,9,13.2,11.3,20.8c-24.8-15.5-52.8-26.3-82-29
	C329.2,89.7,327.4,83.7,325,77.9z"/>
<path class="st13" d="M267.3,124.9c0.8-5,1.9-10.2,5-14.5c1.9,13.6,5.4,27.7,15,38.1c1.1,4.8,3.1,9.4,5.7,13.6
	c8,13.5,21.2,22.7,34.5,30.4c-8.5,5.6-18.6,0.9-27.3-1.7c4.2,6.8,9.2,13,12.9,20.1c7.7,13.9,12.3,30.1,10,46.1
	c-2.1,17.4-13.1,32.8-27.4,42.6c-10.2,6.9-22.5,11.7-35,10.6c2.9-5.8,7.2-10.5,10.7-15.9c5.2-7.5,9.4-15.8,11.2-24.7
	c2.4-12.4,1.3-25.3-3-37.1c-0.1-2.5-0.1-5-0.3-7.5c-2.7-24.1-8.5-47.8-11.5-71.9C266.7,143.8,265.9,134.3,267.3,124.9z"/>
<path d="M438.6,110.9c0.7,0.3,1.3,0.7,2,1c-3.4,5.1-7,10.8-7.1,17.1c0,0.4,0,1.2,0,1.6l-0.1,1.6c-0.2,0.1-0.8,0.5-1,0.6
	c-0.1,2.3-0.1,4.6,0.1,6.8l-1.6-0.4c0.1-0.5,0.3-1.5,0.4-2C431.5,128,432.8,118.2,438.6,110.9z"/>
<path class="st14" d="M440.6,111.9c1.7,0.9,3.4,1.9,5.1,2.8c1,2.3,1.8,4.6,2.5,7c2,5.7,2.6,11.6,3.9,17.5c-1.1-3.4-1.8-6.8-3.1-10.1
	c-1.4-3.9-4.1-7.3-8-8.8c-3.8,1.5-6.3,4.9-7.5,8.7C433.6,122.7,437.3,117,440.6,111.9z"/>
<path d="M339.5,112.4c1.8,5.2,4.7,10.2,9.6,13.1c7.4-5.4,16.8-7.9,25.9-6.5c14.9,1.7,28.6,12,33.8,26.2c3,9.2,3.6,19.2,2.5,28.8
	c-2.1,11.2-8.8,23-20.7,25.7c-3.7,0-7.4-0.5-10.6-2.3c-2-1.4-4-2.9-5.7-4.6c-1.7-2.1-3.2-4.3-4.6-6.7c-0.9-1.8-1.7-3.6-2.4-5.5
	c-0.8-2.3-1.4-4.7-1.9-7.1c-0.9-6.7-1.2-13.8,1.2-20.3c3.8,5,9.9,9.2,16.5,8c4.4-0.7,7.4-5.1,7.2-9.4c-0.6-7.7-6.8-13.9-14-16.1
	c2.2-1.7,4.4-3.6,7.1-4.4c3.9-1.3,8-0.3,11.9,0.2c-1.4-1-2.7-2-4.1-2.9c-5.9-4.2-12.8-7.6-20.2-7.5c-7.8-0.3-15.5,3.3-20.7,9
	c-6.8,7.1-10,16.9-10.8,26.6c-6.9,0-14.3-2.7-17.6-9.1c5.1,3,10.5,6.1,16.6,4.8c0-3.3,0-6.6,0.7-9.8c-7-1.6-14.3-6.1-15.5-13.7
	c2.5,2.8,5,6,8.6,7.5c2.6,1.3,5.5,1,8.2,1.2c1.4-3.4,3.5-6.4,5.5-9.5C341.5,124.4,338.8,118.5,339.5,112.4z"/>
<path d="M445.7,114.8c0.6,0.3,1.8,0.9,2.4,1.2c0.1,0.6,0.2,1.8,0.3,2.4c1.3,0.8,2.9,0.6,4.3,0.4c0.5,0.4,1.6,1.1,2.2,1.5
	c-0.8,0.3-2.4,1-3.2,1.3c-1.1,0.1-2.3,0.2-3.4,0.2C447.5,119.4,446.7,117,445.7,114.8z"/>
<path class="st1" d="M448.1,115.9c1.7,0.6,3.2,1.7,4.6,2.8c-1.4,0.2-3,0.4-4.3-0.4C448.4,117.7,448.2,116.5,448.1,115.9z"/>
<path class="st14" d="M350.3,130.3c5.3-5.7,12.9-9.3,20.7-9c7.4-0.1,14.3,3.3,20.2,7.5c-6.3-3.5-14.4-3-20,1.4
	c-7.3,5.7-10.9,14.8-12.4,23.7c-0.9,8-1,16.2,1,24c0.6,2.2,1.2,4.3,2,6.4c0.8,2,1.6,4,2.6,6c1.6,3.2,3.7,6.3,6.1,9
	c2.3,2.5,5,4.6,8,6.2c0.9,0.4,1.9,0.8,2.9,1.1c5.4,1.8,11.4,0.7,16-2.5c-8.5,8.9-23.1,9-33.2,2.8c-1.5-0.8-2.9-1.8-4.3-2.8
	c-0.4-0.3-1.1-0.8-1.5-1.1c-1.1-1-2.2-1.9-3.3-3c-0.9-0.9-1.7-1.8-2.5-2.8c-0.5-0.6-1.4-1.8-1.9-2.4c-8.2-10.8-12-24.6-11.2-38.1
	C340.3,147.2,343.5,137.4,350.3,130.3z"/>
<path class="st15" d="M433.5,129c1.2-3.8,3.7-7.2,7.5-8.7c4,1.5,6.6,4.9,8,8.8c-1.9-1.3-3.9-2.6-6.1-3.3c-2.9-0.1-4.4,2.9-6.3,4.5
	c-1.1,0.6-2.1,1.2-3.2,1.9l0.1-1.6C433.5,130.1,433.5,129.4,433.5,129z"/>
<path class="st14" d="M451.7,121.5c0.8-0.3,2.4-1,3.2-1.3c16.6,11,30.7,25.2,45.1,38.9V508H293c6.7-1,13.8-1.6,19.8-5.2
	c3-1.7,5.5-5.1,4.5-8.7c-1.4-5.7-3.5-11.1-5.1-16.7c9.8,1.6,20.1,1.6,29.6-1.4c4-1.4,8.5-4.2,8.6-8.9c-0.6-4.9-3.1-9.2-4.4-13.9
	c-11.1-34.9-13.3-71.9-11.2-108.2c14.4-10.1,24.2-25.8,27.9-42.9c5.1-21.9,2.5-44.6-1.6-66.4c21.5,5.9,44.9,8.9,66.6,1.9
	c14.6-4.6,27.3-15.6,32.8-30c1.3-3.6,3.8-8.3,0.5-11.6c-3.1-2.3-7.1-2.8-10.7-3.9c5.3-11.6,6.5-24.5,7-37.1
	C457.2,143.7,455.9,132.1,451.7,121.5z"/>
<path class="st1" d="M448.2,121.7c1.1,0,2.3-0.1,3.4-0.2c4.3,10.6,5.5,22.1,5.6,33.5c-0.5,12.6-1.8,25.5-7,37.1
	c3.6,1.1,7.6,1.6,10.7,3.9c3.3,3.2,0.7,8-0.5,11.6c-5.5,14.4-18.2,25.4-32.8,30c-21.6,6.9-45,4-66.6-1.9c4.1,21.8,6.7,44.5,1.6,66.4
	c-3.7,17-13.5,32.8-27.9,42.9c-2.2,36.3,0.1,73.4,11.2,108.2c1.3,4.7,3.8,9,4.4,13.9c-0.1,4.7-4.6,7.5-8.6,8.9
	c-9.6,3-19.8,3.1-29.6,1.4c1.6,5.6,3.8,11,5.1,16.7c1,3.6-1.5,7-4.5,8.7c-5.9,3.6-13,4.2-19.8,5.2h-13.5c-7.3-0.9-14.8-1.7-21.6-4.6
	c-3.7-1.6-7.6-4.2-8.4-8.5c-6.1-27.1-9.8-55.2-6.6-82.9c2.1-19.9,8.8-38.9,14.7-57.9c-2-0.6-3.9-1.2-5.9-1.8
	c-15.3,32.6-20.9,70.6-11.9,105.8c1.2,5.4,5.1,12.3,0.3,17c-6.1,5.4-14.9,5.4-22.6,5.5c1.2,4.8,2.4,10.6-1.4,14.5
	c-5.6,6-14.4,6.9-22.2,7.4c-9.3,0.2-18.7-1-27.6-3.8c-3.6-1.3-7.6-2.7-9.7-6.1c-1.7-5.7-1.6-11.8-2.3-17.7
	c-4-40.9,7.1-81.3,19.6-119.9c0.9-2.7,2.5-5.6,5.4-6.4c2.8-0.6,5.6-0.1,8.4,0c-3.4-18.7-12.5-36.4-12.5-55.7
	c-0.2-12.1,4.2-23.7,9.6-34.4c0.4-0.8,1.3-2.3,1.7-3.1c0.9-1.6,1.9-3.2,2.9-4.7c-14.5-13.6-30-26.5-47.8-35.6
	c-9.6-4.7-20.5-8.6-31.4-6.7c-8.8,1.5-16,8-20.1,15.8c-7.9,14.9-9.7,32.2-8.8,48.8c1.3,20,7.8,39.1,13.2,58.3
	c5.8,19.2,11.4,38.6,13.1,58.6c1.3,13,0.6,26.2-1.5,39.1c-2.5,14.9-8.9,29.6-20.1,40c-7.1,6.7-15.9,11.1-24.7,15
	c-12.1-1.6-24.1-6.1-33.8-13.7c-4.7-3.9-9.3-9-9.6-15.4c-0.3-4.9,2.7-9.2,6.2-12.4c1.4,3.7,2.5,7.9,5.7,10.4
	c3.1,2.8,7.5,2.5,11.3,3.4c9.4,3,20,0.6,27.7-5.4c12-9.1,17.9-23.8,21.1-38c6-27.5,0-55.7-7.6-82.3c-5.6-21.4-12.8-42.5-14.7-64.7
	c-1-13.2-0.3-26.7,3.9-39.3c3.4-10.8,9.6-21.6,19.9-27.1c9-5.1,19.7-5.1,29.6-3.7c11,2,21.5,6.3,31.4,11.5
	c11.4,6.1,22.2,13.5,31.8,22.2c4.4,3.9,8.3,8.4,11.5,13.4c1.1-0.9,2.1-1.7,3.2-2.6c1.6-1.2,3.2-2.4,4.9-3.6c0.4-0.2,1.2-0.7,1.6-0.9
	c0.6-0.3,1.8-0.9,2.4-1.2c1.3-0.6,2.6-1.1,4-1.6c13.1-4.2,27.5-2.5,39.9,3.1c9.6,4.3,17.7,11.3,27.3,15.6c0.2,1.6,0.3,3.2,0.4,4.8
	c-10.7-4.5-19.6-12.3-30.2-17c-14.1-6.2-31.8-7.1-45,1.8c-12.3,8.6-18.6,23-23,36.9c-1.6,4.1-1.7,8.5-2.1,12.8
	c0.5,0.5,1.4,1.4,1.9,1.8c-0.1,3,0,6.3,2,8.7c-0.8-0.5-2.2-1.6-3-2.2c0.1,1.8,0.2,3.5,0.4,5.3c3.1,17.3,11.1,33.5,12.2,51.1
	c0.5,3.5-1.2,6.7-3.3,9.4c-0.5-3.9-0.8-7.9-1-11.8c-2.8-0.5-5.8-1.8-8.5-0.6c-2.4,2.5-2.8,6.1-3.9,9.3
	c-8.7,27.6-16.5,55.8-18.1,84.8c-0.9,13.4,0.3,26.7,1.8,40c0.3,1.6,0.2,3.6,1.7,4.7c3.6,2.7,8.2,3.6,12.5,4.6
	c10.9,2.3,22.5,3.2,33.2-0.2c3.8-1.3,8.2-4.5,7.4-9c-0.9-6.5-3-12.7-4.2-19.1c-4.8-23.5-7.7-48.2-2.4-71.9c4-18.3,13.5-34.7,20-52.1
	c2.4-6.5,4.3-13.2,6.1-19.9c1.3-4.6,1.8-9.3,3.9-13.6c1.2,9.4-1.3,18.8-3.6,27.9c7.6,5,15.8,9.3,24.5,11.8c1.5-4.5,2.6-9.2,4.9-13.5
	c1,3.7,1.3,7.7,0.2,11.5c-6.1,21.5-14.2,42.6-16.8,65c-3,27,0,54.4,6.2,80.7c1,4.4,5.9,5.9,9.7,7.2c12.4,3.4,25.6,3.8,38.3,1.6
	c4.3-1.1,9.8-1.9,12-6.3c-0.6-4.4-2.4-8.6-3.7-12.9c-11.7-36.9-16.1-75.7-15.5-114.3c0.2-10.1,0-20.3,1-30.4
	c3.5,4.6,3.7,10.4,3.5,15.9c14-2.6,27.9-7.7,38.9-17c11.7-9.9,19-24.4,21.8-39.3c4-21.1,1.4-42.8-2.8-63.7c-5.7-2.6-12.2-3.7-17-7.8
	c-2.1-1.7-2.9-4.3-3.6-6.7c4,2.5,7.9,5.4,12.5,6.9c15.7,5.7,32,9.8,48.8,10.5c15.6,0.6,32.2-2.1,44.9-11.7c-4.1-1-8.6-1.7-11.9-4.7
	c-4.7-4.4-7-11.1-5.9-17.5c3,3.1,2.7,7.9,4.8,11.6c2.8,5.8,9.9,8,16,7.5c1.8-0.9,3.1-2.5,4.4-4c4.5-5.7,7.9-12.4,9.2-19.5
	c-8.1-2.7-18-3.6-23.3-11.2c-2.4-2.8-2-6.5-0.8-9.7c2.5,5.8,6.8,10.8,12.7,13.1c3.1-8.1,5.2-16.6,5.5-25.3
	c1.1-8.8,0.9-17.8-0.6-26.6C450.9,133.4,450.2,127.4,448.2,121.7z"/>
<path d="M436.6,130.3c2-1.6,3.5-4.6,6.3-4.5c2.2,0.8,4.2,2.1,6.1,3.3c1.3,3.3,2.1,6.8,3.1,10.1c1.2,10.6,1.8,21.7-1.8,32
	c-1.2,3.2-2.9,6.9-6.4,8.2c-4,0.4-6.2-3.6-7.7-6.6c-2.5-8.4-4-17-3.8-25.8c0-1.7,0.6-3.2,1.1-4.8c2,4.1,5.7,8,10.5,8.3
	c2.8,0.1,4.8-2.8,4.6-5.3C448.9,138.1,443.4,131.6,436.6,130.3z"/>
<path class="st15" d="M371.1,130.2c5.7-4.5,13.8-4.9,20-1.4c1.4,0.9,2.8,1.9,4.1,2.9c-3.9-0.5-8-1.6-11.9-0.2
	c-2.7,0.8-4.9,2.6-7.1,4.4c-3.9-0.8-8.5-0.1-10.9,3.5c-3.1,4.3-1.3,9.9,1.2,14c-2.5,6.5-2.2,13.5-1.2,20.3c-1.9,1.4-3.7,2.8-5.6,4.3
	c-2-7.8-1.9-16-1-24C360.2,145.1,363.9,135.9,371.1,130.2z"/>
<path class="st14" d="M433.4,132.2c1.1-0.6,2.1-1.2,3.2-1.9c6.8,1.4,12.3,7.8,12.1,14.8c0.1,2.6-1.9,5.4-4.6,5.3
	c-4.8-0.3-8.5-4.2-10.5-8.3c-0.4-0.9-0.8-1.7-1.1-2.6c-0.2-2.3-0.2-4.6-0.1-6.8C432.6,132.6,433.2,132.3,433.4,132.2z"/>
<path class="st14" d="M365.4,139.4c2.4-3.5,7-4.3,10.9-3.5c7.2,2.2,13.3,8.4,14,16.1c0.2,4.3-2.8,8.8-7.2,9.4
	c-6.6,1.1-12.7-3-16.5-8C364,149.3,362.3,143.7,365.4,139.4z"/>
<path class="st16" d="M430.9,139.2l1.6,0.4c0.4,0.9,0.7,1.7,1.1,2.6c-0.5,1.6-1,3.2-1.1,4.8c-0.2,8.7,1.3,17.4,3.8,25.8
	c-0.7-0.1-2.1-0.4-2.8-0.6C430.3,161.6,429.4,150.2,430.9,139.2z"/>
<path class="st17" d="M452.1,139.2c1.4,8.8,1.7,17.8,0.6,26.6c-1.1,6.2-2.2,13.3-7.3,17.6c-5,3.3-9.1-3.1-10.8-7.1
	c-0.4-1.4-0.7-2.8-1.1-4.1c0.7,0.1,2.1,0.4,2.8,0.6c1.5,3,3.7,7,7.7,6.6c3.5-1.3,5.1-5,6.4-8.2C454,160.9,453.3,149.8,452.1,139.2z"
	/>
<path class="st0" d="M60.5,151.2c21.9-5.7,44.9-1.2,66.1,5.2c17.8,5.2,34.5,14.3,48.2,26.9c15.4,14.1,26.9,31.8,37.2,49.8
	c-1.3,0.5-2.7,1-4,1.6c-10.8-19.3-23.5-37.9-40.5-52.2c-12-10.1-26.2-17.3-41.2-21.9c-13.7-4.3-27.9-7.5-42.3-7.8
	c-10.2,0.5-20.7,0.9-30.2,5c-13.2,5.2-23.2,16.6-28.5,29.6c-5.1,12.6-7.5,26.1-8,39.6c-1.2,20.1-0.9,41,6.8,59.9
	c4.7,12,13.5,21.9,18,34c3.2,8.3,4.1,17.3,4,26.1c-0.3,5.7-0.5,11.7-3.6,16.7c-2.1,3.7-6.3,6.1-10.6,5.8c-3.9-0.3-7.3-2.7-10.4-4.8
	c-3.1-4.3-4.6-9.4-6.6-14.3l-0.2,1c-1.6,2.3-3.3,4.6-4.6,7.1c-6,9.5-8,21.8-3.9,32.4c4.2,10.9,13.7,18.9,23.9,24
	c9.1,4.3,19.5,6.8,29.5,4.8c5.2-0.9,9-4.9,12.9-8.2c1.6,13.2-4,26.5-13.9,35.1c-4.8,4.8-11.2,7.3-17.3,9.8
	c-3.8-0.8-8.2-0.6-11.3-3.4c-3.3-2.5-4.4-6.7-5.7-10.4c-3.5,3.2-6.5,7.5-6.2,12.4c0.2,6.4,4.9,11.5,9.6,15.4
	c9.7,7.5,21.6,12.1,33.8,13.7c16.6,3.3,34.5,1,49.4-7.2c14.2-7.9,24.1-22,28.6-37.4c5.6-17.7,2.8-36.7-1.6-54.4
	c-5.5-21.8-14.1-42.7-20.8-64.1c-4-12.7-7.4-25.6-8.3-39c-0.3-10.3,1.4-21.1,7.6-29.6c6.7-9.6,17.8-16.5,29.7-16.6
	c13.3-0.1,25.5,6.5,35.8,14.4c1.9,1.5,3.5,3.4,4.9,5.3c-0.4,0.8-1.3,2.3-1.7,3.1c-10.8-10-24.6-18.9-39.9-18.5
	c-10.3,0.1-19.5,6.5-25.3,14.6c-4.4,6.1-5.5,13.9-5.9,21.2c-0.4,10.8,1.8,21.6,4.3,32c7.2,29.8,20.9,57.7,26.4,88
	c3.6,17.4,3.4,36.1-3.9,52.6c-7.1,18-22.8,32.4-41.5,37.8c-23.7,6.8-50.3,2.9-71-10.4c-7.3-4.6-13.6-12.1-14.2-20.9
	c-0.3-9,6.8-16.2,14-20.4c0.7,4.5,0.4,9.6,3.2,13.4c3.4,4.1,9.6,4.2,14.2,2.3c12-5,20.7-16.6,22.9-29.3c-12.4,6.1-27,3.6-39.1-2
	C14.9,412.4,2.7,400,0,384.2v-11.6c1.5-5.1,3.1-10.3,5.7-15c4-7.4,9.6-13.8,15.2-20c-0.3,5.7-2,11.7,0.1,17.2
	c1.6,4.6,5.1,8.8,9.9,10.2c2.8,0.9,5.8-0.4,7.5-2.7c2.4-3.3,3.2-7.4,3.3-11.4c0.3-9.5,0.4-19.4-3.5-28.2
	c-4.8-13.1-14.4-23.9-19-37.1c-6.4-18.1-7.5-37.7-6.1-56.7c0.8-19.1,4-38.9,14.9-55.1C35.5,162.6,47.4,154.5,60.5,151.2z"/>
<path class="st12" d="M53.9,157.8c9.5-4.2,20-4.6,30.2-5c14.4,0.3,28.6,3.6,42.3,7.8c15,4.5,29.1,11.8,41.2,21.9
	c17,14.3,29.8,32.9,40.5,52.2c-0.6,0.3-1.8,0.9-2.4,1.2c-6.2-11.8-15.3-21.7-24.9-30.7c-14.3-13.2-30.2-24.5-47.5-33.4
	c-15.1-7.5-31.3-13.6-48.2-14.1c-12.7-0.3-26.1,3.9-34.7,13.6C36.2,187.5,28,208.6,26.8,230c-1.3,21.6,3.8,43,11.1,63.1
	c6.2,17.1,14.9,33.5,17.6,51.6c1.9,10.5,1.1,21.9-4.5,31.2c-2.2,3.6-5,7.2-9,8.8c-3.5,1.5-7.5-0.1-10.2-2.5
	c-5.2-4.6-7.9-11.2-10.2-17.7c3.2,2.1,6.5,4.5,10.4,4.8c4.3,0.4,8.5-2.1,10.6-5.8c3-5,3.3-11,3.6-16.7c0.1-8.9-0.9-17.8-4-26.1
	c-4.6-12.1-13.4-21.9-18-34c-7.6-18.9-8-39.8-6.8-59.9c0.5-13.5,2.9-27,8-39.6C30.7,174.5,40.7,163.1,53.9,157.8z"/>
<path class="st4" d="M50.3,171.3c8.6-9.7,22-13.9,34.7-13.6c17,0.5,33.2,6.7,48.2,14.1c17.3,8.9,33.2,20.2,47.5,33.4
	c9.6,9,18.7,19,24.9,30.7c-0.4,0.2-1.2,0.7-1.6,0.9c-8.8-10.8-18.8-20.5-29.4-29.5c-16.7-14-35-26.5-55.4-34.5
	c-11.5-4.4-23.9-7.5-36.3-5.8c-9.3,1.1-18,5.9-23.9,13.2c-4.9,5.9-7.8,13.2-10.9,20.2c-5.8,13.9-10.1,28.6-10,43.8
	c-0.3,17.7,6,34.5,11.6,51.1c6.4,18.1,11.3,36.8,12.6,55.9c0.5,10.4,0,21.3-4.4,31c-2.5,5.5-6.9,10.4-12.7,12.3
	c-6.5,2.3-14,0-19-4.6c-7.7-6.6-11.2-16.9-11.5-26.8c0.1-3.9,0.1-7.7-0.1-11.6l0.2-1c2,4.9,3.6,9.9,6.6,14.3c2.3,6.4,5,13,10.2,17.7
	c2.7,2.4,6.6,4,10.2,2.5c4-1.6,6.8-5.3,9-8.8c5.6-9.3,6.5-20.7,4.5-31.2c-2.7-18.1-11.4-34.5-17.6-51.6
	c-7.3-20.2-12.3-41.6-11.1-63.1C28,208.6,36.2,187.5,50.3,171.3z"/>
<path class="st14" d="M439.9,169.1c-1.8-1.3-2.3-4.8,0.1-5.7c3.6-1.2,7,1.2,8.5,4.4c-0.3,0.7-1,2.2-1.3,3
	C444.7,170.9,441.7,171.3,439.9,169.1z"/>
<path class="st14" d="M445.5,183.4c5.1-4.3,6.1-11.4,7.3-17.6c-0.3,8.7-2.4,17.2-5.5,25.3c-5.9-2.3-10.2-7.3-12.7-13.1
	c0-0.4,0.1-1.3,0.2-1.7C436.4,180.3,440.5,186.7,445.5,183.4z"/>
<path class="st2" d="M59.1,180.1C65,172.9,73.8,168,83,166.9c12.4-1.7,24.8,1.4,36.3,5.8c20.4,8,38.7,20.5,55.4,34.5
	c10.6,9,20.6,18.7,29.4,29.5c-1.7,1.1-3.3,2.3-4.9,3.6c-10.9-12.3-23.2-23.2-36.3-33.2c-12.2-9-25.1-17.2-39.3-22.7
	c-10.9-4-23-6.5-34.5-3.3c-10.2,2.7-18.5,10.2-23.7,19.2c-6.3,10.5-9.2,22.6-11.7,34.5c-2.8,14.4-3.3,29.4-0.4,43.8
	c4.5,23.6,18.5,44.3,21.9,68.2c2,12.6,1.5,25.5-0.7,38c-1.3,7-5.1,13.7-11.1,17.7c-6.5,4.4-14.8,5.6-22.5,4.2
	c-10.9-1.9-21.3-8-27.3-17.5c-4-6.2-5.9-13.9-5-21.2c0.3-3.2,0.8-6.4,1.3-9.5c1.3-2.5,3-4.8,4.6-7.1c0.2,3.9,0.2,7.7,0.1,11.6
	c0.3,9.9,3.8,20.2,11.5,26.8c5,4.6,12.4,6.9,19,4.6c5.8-1.9,10.2-6.9,12.7-12.3c4.4-9.6,4.9-20.5,4.4-31
	c-1.3-19.2-6.2-37.9-12.6-55.9c-5.6-16.5-11.9-33.3-11.6-51.1c-0.1-15.1,4.2-29.9,10-43.8C51.4,193.3,54.2,186,59.1,180.1z"/>
<path class="st18" d="M359.7,177.9c1.8-1.4,3.7-2.9,5.6-4.3c0.5,2.4,1.1,4.8,1.9,7.1c-1.8,1.2-3.7,2.4-5.5,3.6
	C360.9,182.2,360.3,180.1,359.7,177.9z"/>
<path class="st19" d="M390.5,199.8c11.9-2.7,18.6-14.5,20.7-25.7c-1.4,11.1-4.7,22.9-13.9,30.1c-4.7,3.2-10.6,4.2-16,2.5
	C384.3,204.3,387.2,201.8,390.5,199.8z"/>
<path class="st9" d="M89.1,181.2c11.5-3.2,23.6-0.7,34.5,3.3c14.2,5.5,27.1,13.7,39.3,22.7c13.1,9.9,25.4,20.9,36.3,33.2
	c-1.1,0.8-2.2,1.7-3.2,2.6c-3.2-4.9-7.1-9.4-11.5-13.4c-9.6-8.7-20.4-16.1-31.8-22.2c-9.9-5.2-20.4-9.5-31.4-11.5
	c-9.9-1.4-20.7-1.3-29.6,3.7c-10.3,5.5-16.5,16.3-19.9,27.1c-4.2,12.6-4.9,26.1-3.9,39.3c1.9,22.1,9.1,43.3,14.7,64.7
	C90,357.2,96,385.5,90.1,413c-3.1,14.3-9.1,29-21.1,38c-7.7,6-18.3,8.4-27.7,5.4c6.2-2.5,12.5-5,17.3-9.8c9.9-8.7,15.5-22,13.9-35.1
	c-3.9,3.3-7.6,7.3-12.9,8.2c-10,2-20.4-0.5-29.5-4.8c-10.2-5.1-19.7-13.1-23.9-24c-4.1-10.6-2.1-22.9,3.9-32.4
	c-0.5,3.2-1,6.3-1.3,9.5c-0.8,7.4,1,15,5,21.2c5.9,9.5,16.4,15.5,27.3,17.5c7.6,1.5,16,0.3,22.5-4.2c6-4,9.7-10.7,11.1-17.7
	c2.2-12.5,2.7-25.4,0.7-38c-3.5-23.9-17.4-44.6-21.9-68.2c-2.9-14.4-2.4-29.4,0.4-43.8c2.4-11.9,5.3-24,11.7-34.5
	C70.7,191.4,78.9,183.8,89.1,181.2z"/>
<path class="st16" d="M361.7,184.4c1.8-1.2,3.6-2.4,5.5-3.6c0.7,1.9,1.5,3.7,2.4,5.5c-1.8,1.4-3.5,2.7-5.3,4.1
	C363.3,188.4,362.5,186.4,361.7,184.4z"/>
<path class="st14" d="M379.5,184.9c1.4-3.4,5.5-3.6,8.7-3.3c2,1.1,4.2,2.1,5.2,4.3c1.1,3.2-2.2,6.1-5.3,5.9
	C384,192.4,378.6,189.6,379.5,184.9z"/>
<path class="st20" d="M364.2,190.4c1.8-1.4,3.5-2.7,5.3-4.1c1.3,2.3,2.8,4.6,4.6,6.7c-1.2,2.1-2.5,4.3-3.7,6.5
	C368,196.6,365.9,193.6,364.2,190.4z"/>
<path class="st21" d="M374.1,192.9c1.8,1.7,3.7,3.2,5.7,4.6c-0.5,2.7-1,5.4-1.4,8c-3-1.6-5.7-3.7-8-6.2
	C371.6,197.2,372.9,195.1,374.1,192.9z"/>
<path d="M342.3,202.1c2.5-2.7,4.5-6.5,8.5-7.1c0.5,0.6,1.4,1.8,1.9,2.4C348.6,197.5,345.4,199.9,342.3,202.1z"/>
<path class="st22" d="M379.8,197.5c3.2,1.8,7,2.3,10.6,2.3c-3.2,2-6.2,4.5-9.2,6.8c-1-0.3-1.9-0.7-2.9-1.1
	C378.9,202.9,379.4,200.2,379.8,197.5z"/>
<path class="st23" d="M442.7,204c-0.1-2.9,1.5-6.2,4.7-6.4c-0.8,2.1-1.7,4.2-2.4,6.4c2.2,0,4.5,0,6.7-0.1
	C450.6,207.7,444,207.4,442.7,204z"/>
<path d="M346.2,210.1c0.6-4.9,4.5-8.3,8.9-10c1.1,1,2.2,2,3.3,3C353.6,203.9,349.2,206.2,346.2,210.1z"/>
<path d="M352.5,217.8c1-5.2,2.7-10.6,7.4-13.5c1.4,1,2.8,1.9,4.3,2.8C358.3,207.9,355.4,213.3,352.5,217.8z"/>
<path class="st13" d="M110.3,208.5c10.9-1.9,21.7,2,31.4,6.7c17.8,9.1,33.3,22,47.8,35.6c-1,1.6-1.9,3.1-2.9,4.7
	c-1.5-1.9-3-3.8-4.9-5.3c-10.3-7.9-22.5-14.5-35.8-14.4c-11.9,0.1-23,6.9-29.7,16.6c-6.1,8.5-7.9,19.4-7.6,29.6
	c0.8,13.3,4.3,26.3,8.3,39c6.8,21.4,15.3,42.3,20.8,64.1c4.4,17.6,7.2,36.6,1.6,54.4c-4.5,15.4-14.5,29.5-28.6,37.4
	c-14.9,8.2-32.8,10.5-49.4,7.2c8.8-3.9,17.7-8.3,24.7-15c11.2-10.4,17.6-25.1,20.1-40c2.1-12.9,2.9-26,1.5-39.1
	c-1.7-20-7.2-39.4-13.1-58.6c-5.4-19.1-11.9-38.3-13.2-58.3c-0.9-16.6,0.9-33.9,8.8-48.8C94.3,216.5,101.5,210,110.3,208.5z"/>
<path class="st24" d="M209.9,274.3c1-3.6,1.4-7.4,3.4-10.6c1.2,3.5,2.2,7.1,3.2,10.7C214.4,274.4,212.1,274.4,209.9,274.3z"/>
<path class="st24" d="M194.3,265.1c2.7,2.9,5.6,5.6,7.9,8.8c-1.9,1-3.9,1.9-5.8,2.9C195.5,272.9,194.9,269,194.3,265.1z"/>
<path class="st24" d="M222.9,274.9c1.7-3.4,3.7-6.8,5.7-10c0.4,3.9,0.7,7.8,0.8,11.7C227.2,276,225,275.5,222.9,274.9z"/>
<path class="st24" d="M232.9,278.8c2.9-2.5,5.8-4.9,9-7c-1,3.7-2.3,7.3-3.7,10.9C236.5,281.4,234.7,280.1,232.9,278.8z"/>
<path class="st24" d="M183.9,274c2.8,1,5.6,2.1,8.3,3.3c-1.2,1.9-2.7,3.6-4.6,4.8C186.2,279.5,185,276.8,183.9,274z"/>
<path class="st25" d="M197.6,279.4c9.9-3.3,21.1-4.1,30.9-0.1c4.6,1.8,9,5.5,9.7,10.7c0.4,5.1-2.9,9.6-6.9,12.3
	c-8.4,6-19.1,8-29.3,7.4c-6.9-0.4-14.2-2.5-18.8-7.9c-2-2.5-2.1-5.7-2-8.7C183.9,286,190.7,281.7,197.6,279.4z"/>
<path class="st26" d="M180.9,283c1-1.8,3.6-0.8,5.3-1.3c-1,2-2.1,4-3.2,6C182.2,286.2,181,284.8,180.9,283z"/>
<path class="st6" d="M203.5,283.7c6.7-1.5,13.9-1.7,20.6,0.2c3.3,1,6.9,2.7,8.2,6.1c0.5,3.3-2.1,6-4.6,7.8
	c-6.9,4.8-15.5,6.4-23.7,6.3c-5.5-0.4-11.7-1.1-15.7-5.4c-2.1-2.1-1.2-5.6,0.7-7.5C192.9,287.1,198.2,285,203.5,283.7z"/>
<path class="st24" d="M239.3,284.7c3.7,0.1,7.5,0.3,11.2,0.7c-3,2.2-6.2,4-9.5,5.8C240.3,289.1,239.8,286.9,239.3,284.7z"/>
<path class="st24" d="M239.2,295.4c2.8,2.4,5.6,4.9,8.1,7.6c-3.7-0.2-7.4-0.8-11.1-1.6C237.2,299.4,238.2,297.4,239.2,295.4z"/>
<path class="st27" d="M180.2,299.6c0.8,0.5,2.2,1.6,3,2.2c0.2,1.1,0.5,2.2,0.8,3.3c-0.8,0-2.5-0.1-3.4-0.1
	C180.5,303.1,180.3,301.3,180.2,299.6z"/>
<path class="st24" d="M226.5,308.4c-0.3-2.2,3.4-3,4.7-4.5c1.5,3.6,2.9,7.2,3.9,10.9C232.2,312.7,229.2,310.8,226.5,308.4z"/>
<path class="st24" d="M184.8,318.2c0.7-3.8,1.7-7.4,2.8-11.1c1.8,1.1,3.7,2.2,5.5,3.3C190.8,313.4,187.9,315.9,184.8,318.2z"/>
<path class="st28" d="M213.2,311.4c2.1-0.6,4.3-1.1,6.5-1.5c0,3.8-0.1,7.5-0.3,11.3C217.1,318.1,215.3,314.7,213.2,311.4z"/>
<path class="st24" d="M199.4,311.2c2.2,0.4,4.4,0.8,6.6,1.3c-1.8,3.3-3.3,6.9-5.9,9.7C199.7,318.6,199.6,314.9,199.4,311.2z"/>
<path class="st29" d="M233.1,342.8c4.9,2.5,9.6,5.3,14.6,7.6c-16.3,35.9-21.9,77.7-10,115.7c0.9,2.4,0.8,5.6-1.8,6.9
	c-5.9,3.3-13.1,3.8-19.7,3c-5.7-25-9.9-51.2-4.9-76.7C215.3,379.3,226.6,361.9,233.1,342.8z"/>
<path class="st29" d="M314.7,354.6c5.4-1.7,10.4-4.3,15.5-6.7c0.5,5.7-0.3,11.4-0.4,17.1c-0.1,33.9,3.8,68.3,16,100.1
	c1.7,3.8-2.6,6.2-5.7,7.1c-8,2.2-16.6,2.7-24.8,1.5c-1.9-0.5-4.6-0.4-5-2.8c-10.1-36.3-13-74.2-12-111.7
	C303.8,357.4,309.4,356.6,314.7,354.6z"/>
</svg>
