<?xml version="1.0" encoding="UTF-8" ?>
<!DOCTYPE svg PUBLIC "-//W3C//DTD SVG 1.1//EN" "http://www.w3.org/Graphics/SVG/1.1/DTD/svg11.dtd">
<svg class="unicorn" width="500pt" height="508pt" viewBox="0 0 500 508" version="1.1" xmlns="http://www.w3.org/2000/svg">
<path fill="#f49ac2" d=" M 402.72 12.67 C 407.04 9.45 409.83 4.75 413.39 0.79 C 414.31 7.78 415.06 15.05 412.84 21.88 C 411.35 27.47 407.73 32.09 404.52 36.78 C 407.72 37.23 410.93 37.65 414.14 38.07 C 413.48 39.36 412.83 40.65 412.18 41.95 C 406.85 41.30 401.52 40.70 396.19 40.06 C 400.28 34.47 405.55 29.59 408.08 23.00 C 409.61 19.51 409.80 15.67 410.01 11.92 C 401.88 19.90 391.04 24.30 379.96 26.24 C 353.78 31.21 326.21 32.44 302.04 44.73 C 300.89 43.65 299.72 42.58 298.57 41.50 C 304.62 38.77 310.73 36.16 317.08 34.18 C 336.99 27.65 358.03 26.17 378.52 22.32 C 387.07 20.65 395.75 18.10 402.72 12.67 Z"></path>
<path fill="#7ea7d8" d=" M 426.87 13.96 C 428.34 11.35 430.50 9.24 432.80 7.34 C 433.43 7.74 434.71 8.52 435.34 8.92 C 436.13 20.09 433.26 31.12 432.36 42.22 C 432.18 43.62 432.01 45.03 431.84 46.43 C 431.27 51.22 430.68 56.00 430.10 60.79 C 429.49 65.56 428.89 70.34 428.50 75.15 C 432.43 74.44 436.31 73.48 440.21 72.61 C 439.17 74.42 438.10 76.51 435.85 76.98 C 428.31 79.29 420.10 80.35 412.36 78.36 C 405.24 76.56 398.84 72.41 393.84 67.09 C 392.07 65.52 392.23 63.00 391.84 60.87 C 394.24 62.92 396.62 65.01 399.04 67.04 C 401.33 63.23 403.44 59.32 405.43 55.35 C 407.72 50.90 409.97 46.43 412.18 41.95 C 412.83 40.65 413.48 39.36 414.14 38.07 C 418.22 29.95 422.24 21.79 426.87 13.96 Z"></path>
<path fill="#fff79a" d=" M 379.96 26.24 C 391.04 24.30 401.88 19.90 410.01 11.92 C 409.80 15.67 409.61 19.51 408.08 23.00 C 405.55 29.59 400.28 34.47 396.19 40.06 C 401.52 40.70 406.85 41.30 412.18 41.95 C 409.97 46.43 407.72 50.90 405.43 55.35 C 384.14 51.92 361.40 53.21 341.82 62.86 C 335.22 65.98 329.48 70.50 323.45 74.52 C 318.24 63.38 311.05 53.12 302.04 44.73 C 326.21 32.44 353.78 31.21 379.96 26.24 Z"></path>
<path fill="#f8977a" d=" M 426.26 22.16 C 428.03 18.90 429.60 15.46 432.24 12.79 C 431.76 16.36 432.23 20.31 430.52 23.58 C 429.09 25.79 427.28 23.38 426.26 22.16 Z"></path>
<path fill="#fdc68a" d=" M 422.00 30.93 C 422.52 28.54 423.86 26.46 424.95 24.31 C 425.92 25.06 426.90 25.81 427.88 26.55 C 428.62 26.51 430.10 26.42 430.83 26.38 C 430.37 28.94 430.83 32.56 428.00 33.88 C 425.66 35.34 422.79 33.19 422.00 30.93 Z"></path>
<path fill="#fff7bd" d=" M 417.36 39.32 C 418.32 37.24 419.47 35.26 420.55 33.24 C 422.89 35.88 426.28 37.28 429.69 35.68 C 429.09 39.54 429.63 44.41 425.98 46.93 C 421.57 50.37 414.11 44.07 417.36 39.32 Z"></path>
<path fill="#7ea7d8" d=" M 290.17 42.20 C 292.68 40.60 295.78 41.36 298.57 41.50 C 299.72 42.58 300.89 43.65 302.04 44.73 C 311.05 53.12 318.24 63.38 323.45 74.52 C 323.97 75.64 324.47 76.78 324.96 77.92 C 327.37 83.69 329.22 89.71 330.13 95.90 C 330.32 97.31 330.51 98.73 330.62 100.16 C 330.08 103.26 328.50 106.01 326.58 108.46 C 327.11 95.91 323.13 83.67 317.49 72.61 C 312.60 62.99 306.21 54.06 298.24 46.77 C 296.64 45.07 293.93 44.44 292.00 45.98 C 288.13 48.90 285.82 53.36 283.87 57.70 C 277.31 73.55 275.39 90.99 276.41 108.02 C 277.43 121.88 281.30 136.50 291.65 146.40 C 295.80 150.67 301.32 153.02 306.67 155.36 C 302.42 158.41 297.28 155.91 293.20 153.86 C 291.22 152.08 289.17 150.38 287.19 148.60 C 277.66 138.20 274.11 124.10 272.24 110.49 C 269.16 114.70 268.11 119.91 267.26 124.95 C 265.87 134.28 266.68 143.76 267.68 153.09 C 270.60 177.20 276.43 200.86 279.15 225.00 C 279.40 227.50 279.35 230.01 279.46 232.52 C 274.00 218.68 264.74 206.77 258.95 193.09 C 255.04 183.81 251.58 174.11 251.04 163.97 C 252.91 142.84 255.70 121.07 266.35 102.32 C 268.37 98.19 272.25 94.78 272.39 89.93 C 273.00 79.12 275.48 68.51 278.94 58.28 C 280.60 55.01 282.11 51.68 283.79 48.42 C 285.75 46.20 287.62 43.79 290.17 42.20 Z"></path>
<path fill="#f49ac2" d=" M 431.84 46.43 C 432.01 45.03 432.18 43.62 432.36 42.22 C 446.96 46.33 460.80 53.65 471.67 64.32 C 483.82 75.97 491.30 91.78 495.03 108.03 C 498.66 122.99 498.93 138.44 500.00 153.71 L 500.00 159.12 C 485.64 145.42 471.53 131.20 454.91 120.19 C 454.37 119.82 453.27 119.08 452.73 118.71 C 451.31 117.58 449.81 116.56 448.12 115.91 C 447.52 115.62 446.33 115.04 445.73 114.75 C 444.04 113.79 442.35 112.82 440.64 111.90 C 439.97 111.55 439.30 111.20 438.63 110.86 C 426.19 104.97 413.14 100.50 400.01 96.44 C 409.35 107.21 416.52 120.05 418.98 134.21 C 412.27 130.22 405.89 125.68 398.99 122.01 C 377.96 110.29 354.61 102.55 330.62 100.16 C 330.51 98.73 330.32 97.31 330.13 95.90 C 359.37 98.56 387.37 109.36 412.14 124.88 C 409.81 117.28 405.67 110.37 400.83 104.12 C 396.44 98.46 390.98 93.74 386.77 87.93 C 390.69 88.92 394.55 90.17 398.38 91.47 C 415.98 97.18 433.80 102.85 449.91 112.13 C 460.80 118.53 470.82 126.32 480.18 134.78 C 485.39 139.13 489.94 144.19 495.24 148.43 C 495.16 146.12 495.07 143.81 494.93 141.51 C 494.09 128.97 492.92 116.36 489.78 104.17 C 487.34 94.77 482.94 86.05 477.93 77.79 L 477.58 77.71 C 466.94 61.97 449.79 51.77 431.84 46.43 Z"></path>
<path fill="#7ff8d5" d=" M 292.00 45.98 C 293.93 44.44 296.64 45.07 298.24 46.77 C 306.21 54.06 312.60 62.99 317.49 72.61 C 323.13 83.67 327.11 95.91 326.58 108.46 C 328.50 106.01 330.08 103.26 330.62 100.16 C 354.61 102.55 377.96 110.29 398.99 122.01 C 405.89 125.68 412.27 130.22 418.98 134.21 C 416.52 120.05 409.35 107.21 400.01 96.44 C 413.14 100.50 426.19 104.97 438.63 110.86 C 432.77 118.23 431.53 128.03 431.23 137.14 C 431.14 137.64 430.96 138.66 430.88 139.17 C 429.43 150.19 430.33 161.56 433.58 172.20 C 433.96 173.56 434.35 174.95 434.70 176.33 C 434.65 176.75 434.55 177.59 434.50 178.01 C 433.34 181.21 432.92 184.93 435.32 187.69 C 440.66 195.28 450.50 196.16 458.62 198.90 C 457.29 206.07 453.87 212.73 449.40 218.44 C 448.14 219.95 446.86 221.59 445.04 222.45 C 439.01 222.97 431.88 220.79 429.07 214.98 C 426.93 211.33 427.29 206.53 424.25 203.40 C 423.13 209.71 425.42 216.51 430.13 220.86 C 433.36 223.85 437.87 224.55 441.99 225.57 C 429.25 235.20 412.65 237.83 397.05 237.28 C 380.34 236.62 363.96 232.46 348.29 226.79 C 343.73 225.25 339.83 222.39 335.79 219.85 C 336.52 222.30 337.30 224.93 339.42 226.58 C 344.28 230.70 350.81 231.75 356.47 234.40 C 360.71 255.27 363.34 277.00 359.29 298.12 C 356.49 313.08 349.22 327.51 337.52 337.45 C 326.56 346.78 312.65 351.90 298.64 354.49 C 298.86 348.97 298.59 343.20 295.12 338.62 C 294.18 348.71 294.32 358.86 294.16 368.99 C 293.60 407.56 298.02 446.43 309.67 483.29 C 310.94 487.56 312.73 491.70 313.37 496.14 C 311.17 500.51 305.69 501.37 301.39 502.46 C 288.75 504.66 275.52 504.29 263.12 500.90 C 259.35 499.61 254.41 498.15 253.44 493.70 C 247.25 467.34 244.21 439.99 247.23 412.98 C 249.81 390.64 257.85 369.52 263.98 348.03 C 265.09 344.28 264.80 340.31 263.81 336.58 C 261.59 340.86 260.47 345.57 258.95 350.11 C 250.16 347.61 241.99 343.30 234.41 338.26 C 236.70 329.18 239.19 319.82 237.98 310.39 C 235.89 314.69 235.34 319.47 234.06 324.03 C 232.25 330.71 230.35 337.38 227.95 343.88 C 221.42 361.31 211.96 377.71 207.94 396.01 C 202.67 419.73 205.51 444.36 210.32 467.90 C 211.50 474.32 213.60 480.55 214.49 487.02 C 215.29 491.60 210.97 494.79 207.13 496.06 C 196.40 499.51 184.79 498.62 173.92 496.29 C 169.59 495.27 165.02 494.36 161.39 491.64 C 159.88 490.61 160.06 488.57 159.71 486.99 C 158.22 473.72 157.00 460.34 157.94 446.99 C 159.55 417.96 167.32 389.73 176.04 362.15 C 177.15 359.02 177.60 355.38 179.97 352.89 C 182.72 351.68 185.71 353.02 188.47 353.52 C 188.63 357.47 188.93 361.42 189.45 365.35 C 191.54 362.65 193.27 359.49 192.79 355.94 C 191.75 338.30 183.69 322.10 180.62 304.84 C 181.46 304.88 183.14 304.95 183.98 304.99 C 183.73 303.90 183.48 302.81 183.23 301.73 C 187.85 307.13 195.13 309.30 202.02 309.66 C 212.18 310.28 222.87 308.27 231.29 302.30 C 235.23 299.51 238.61 295.02 238.18 289.96 C 237.53 284.79 233.08 281.09 228.49 279.26 C 218.64 275.34 207.50 276.13 197.58 279.39 C 190.74 281.71 183.94 285.96 181.24 293.00 C 180.78 292.54 179.85 291.64 179.38 291.18 C 179.79 286.86 179.89 282.45 181.44 278.34 C 185.82 264.48 192.18 250.08 204.44 241.45 C 217.60 232.47 235.29 233.37 249.40 239.61 C 260.03 244.28 268.92 252.09 279.65 256.57 C 279.67 265.55 277.67 274.56 273.51 282.55 C 267.77 293.65 259.35 303.05 252.97 313.76 C 265.29 316.05 278.11 313.77 289.23 308.15 C 304.82 300.47 317.84 287.07 323.90 270.67 C 328.99 257.10 328.76 241.90 324.65 228.12 C 321.59 217.54 316.30 207.77 310.33 198.58 C 314.78 199.26 319.41 199.93 323.85 198.68 C 328.15 197.69 331.77 195.04 335.16 192.34 C 323.12 185.34 310.73 178.21 301.66 167.40 C 298.13 163.37 295.57 158.63 293.20 153.86 C 297.28 155.91 302.42 158.41 306.67 155.36 C 301.32 153.02 295.80 150.67 291.65 146.40 C 281.30 136.50 277.43 121.88 276.41 108.02 C 275.39 90.99 277.31 73.55 283.87 57.70 C 285.82 53.36 288.13 48.90 292.00 45.98 Z"></path>
<path fill="#82ca9d" d=" M 411.46 51.99 C 411.96 49.37 413.44 47.11 414.83 44.89 C 416.70 46.75 418.37 49.15 421.06 49.86 C 423.49 50.83 425.81 49.22 427.99 48.32 C 427.60 51.05 427.99 54.10 426.57 56.56 C 421.73 60.96 412.99 58.42 411.46 51.99 Z"></path>
<path fill="#fff79a" d=" M 430.10 60.79 C 430.68 56.00 431.27 51.22 431.84 46.43 C 449.79 51.77 466.94 61.97 477.58 77.71 C 472.98 77.27 469.02 74.79 464.82 73.09 C 453.48 68.37 441.98 63.97 430.10 60.79 Z"></path>
<path fill="#f49ac2" d=" M 254.30 85.32 C 260.68 70.70 271.22 58.14 283.79 48.42 C 282.11 51.68 280.60 55.01 278.94 58.28 C 266.57 69.10 257.98 83.86 253.50 99.61 C 248.21 118.17 247.80 137.77 249.55 156.88 C 249.79 159.29 250.47 161.62 251.04 163.97 C 251.58 174.11 255.04 183.81 258.95 193.09 C 264.74 206.77 274.00 218.68 279.46 232.52 C 283.76 244.33 284.94 257.27 282.50 269.62 C 280.64 278.57 276.45 286.87 271.29 294.36 C 267.81 299.72 263.44 304.50 260.57 310.25 C 273.06 311.33 285.37 306.48 295.61 299.63 C 309.89 289.87 320.89 274.50 323.02 257.08 C 325.27 241.10 320.65 224.96 312.98 211.02 C 309.24 203.97 304.25 197.72 300.05 190.95 C 308.75 193.48 318.83 198.20 327.35 192.60 C 314.08 184.87 300.88 175.67 292.87 162.21 C 290.25 158.01 288.32 153.42 287.19 148.60 C 289.17 150.38 291.22 152.08 293.20 153.86 C 295.57 158.63 298.13 163.37 301.66 167.40 C 310.73 178.21 323.12 185.34 335.16 192.34 C 331.77 195.04 328.15 197.69 323.85 198.68 C 319.41 199.93 314.78 199.26 310.33 198.58 C 316.30 207.77 321.59 217.54 324.65 228.12 C 328.76 241.90 328.99 257.10 323.90 270.67 C 317.84 287.07 304.82 300.47 289.23 308.15 C 278.11 313.77 265.29 316.05 252.97 313.76 C 259.35 303.05 267.77 293.65 273.51 282.55 C 277.67 274.56 279.67 265.55 279.65 256.57 C 279.55 254.95 279.45 253.35 279.25 251.76 C 278.83 232.37 265.93 216.90 257.70 200.29 C 246.03 177.51 243.42 151.28 244.83 126.05 C 245.86 112.11 248.57 98.14 254.30 85.32 Z"></path>
<path fill="#fdc68a" d=" M 341.82 62.86 C 361.40 53.21 384.14 51.92 405.43 55.35 C 403.44 59.32 401.33 63.23 399.04 67.04 C 396.62 65.01 394.24 62.92 391.84 60.87 C 392.23 63.00 392.07 65.52 393.84 67.09 C 398.84 72.41 405.24 76.56 412.36 78.36 C 420.10 80.35 428.31 79.29 435.85 76.98 C 438.10 76.51 439.17 74.42 440.21 72.61 C 436.31 73.48 432.43 74.44 428.50 75.15 C 428.89 70.34 429.49 65.56 430.10 60.79 C 441.98 63.97 453.48 68.37 464.82 73.09 C 469.02 74.79 472.98 77.27 477.58 77.71 L 477.93 77.79 C 482.94 86.05 487.34 94.77 489.78 104.17 C 492.92 116.36 494.09 128.97 494.93 141.51 C 489.49 136.49 484.83 130.69 479.32 125.73 C 458.55 105.61 434.17 88.44 406.41 79.58 C 380.16 71.04 351.60 71.31 324.96 77.92 C 324.47 76.78 323.97 75.64 323.45 74.52 C 329.48 70.50 335.22 65.98 341.82 62.86 Z"></path>
<path fill="#6ecff6" d=" M 406.23 62.97 C 406.23 59.89 408.42 57.34 409.81 54.73 C 411.93 56.86 413.88 59.50 416.93 60.32 C 420.22 61.41 423.65 60.36 426.83 59.40 C 426.22 62.33 426.76 66.12 424.22 68.19 C 418.20 71.79 409.45 69.10 406.23 62.97 Z"></path>
<path fill="#c4df9b" d=" M 253.50 99.61 C 257.98 83.86 266.57 69.10 278.94 58.28 C 275.48 68.51 273.00 79.12 272.39 89.93 C 272.25 94.78 268.37 98.19 266.35 102.32 C 255.70 121.07 252.91 142.84 251.04 163.97 C 250.47 161.62 249.79 159.29 249.55 156.88 C 247.80 137.77 248.21 118.17 253.50 99.61 Z"></path>
<path fill="#7ea6d8" d=" M 287.70 77.82 C 289.71 71.42 290.85 64.14 296.09 59.44 C 292.63 72.53 287.60 85.37 286.65 98.99 C 285.90 110.39 289.77 122.08 297.57 130.49 C 299.37 132.37 301.30 134.11 303.09 136.01 C 295.65 134.94 291.43 128.00 288.24 121.93 C 281.47 108.15 283.68 92.06 287.70 77.82 Z"></path>
<path fill="#a187be" d=" M 404.17 64.91 C 407.10 67.42 410.00 70.31 413.90 71.22 C 417.67 72.47 421.69 71.71 425.29 70.26 C 425.13 72.07 424.98 73.88 424.86 75.69 C 416.71 76.58 408.11 74.64 401.88 69.10 C 402.64 67.70 403.40 66.30 404.17 64.91 Z"></path>
<path fill="#ff8088" d=" M 324.96 77.92 C 351.60 71.31 380.16 71.04 406.41 79.58 C 434.17 88.44 458.55 105.61 479.32 125.73 C 484.83 130.69 489.49 136.49 494.93 141.51 C 495.07 143.81 495.16 146.12 495.24 148.43 C 489.94 144.19 485.39 139.13 480.18 134.78 C 470.82 126.32 460.80 118.53 449.91 112.13 C 433.80 102.85 415.98 97.18 398.38 91.47 C 394.55 90.17 390.69 88.92 386.77 87.93 C 390.98 93.74 396.44 98.46 400.83 104.12 C 405.67 110.37 409.81 117.28 412.14 124.88 C 387.37 109.36 359.37 98.56 330.13 95.90 C 329.22 89.71 327.37 83.69 324.96 77.92 Z"></path>
<path fill="#bc8dbf" d=" M 267.26 124.95 C 268.11 119.91 269.16 114.70 272.24 110.49 C 274.11 124.10 277.66 138.20 287.19 148.60 C 288.32 153.42 290.25 158.01 292.87 162.21 C 300.88 175.67 314.08 184.87 327.35 192.60 C 318.83 198.20 308.75 193.48 300.05 190.95 C 304.25 197.72 309.24 203.97 312.98 211.02 C 320.65 224.96 325.27 241.10 323.02 257.08 C 320.89 274.50 309.89 289.87 295.61 299.63 C 285.37 306.48 273.06 311.33 260.57 310.25 C 263.44 304.50 267.81 299.72 271.29 294.36 C 276.45 286.87 280.64 278.57 282.50 269.62 C 284.94 257.27 283.76 244.33 279.46 232.52 C 279.35 230.01 279.40 227.50 279.15 225.00 C 276.43 200.86 270.60 177.20 267.68 153.09 C 266.68 143.76 265.87 134.28 267.26 124.95 Z"></path>
<path fill="#000000" d=" M 438.63 110.86 C 439.30 111.20 439.97 111.55 440.64 111.90 C 437.27 117.01 433.61 122.73 433.51 128.98 C 433.51 129.37 433.49 130.15 433.48 130.54 L 433.41 132.16 C 433.16 132.31 432.64 132.62 432.38 132.77 C 432.30 135.05 432.25 137.33 432.45 139.61 L 430.88 139.17 C 430.96 138.66 431.14 137.64 431.23 137.14 C 431.53 128.03 432.77 118.23 438.63 110.86 Z"></path>
<path fill="#ffffff" d=" M 440.64 111.90 C 442.35 112.82 444.04 113.79 445.73 114.75 C 446.69 117.03 447.49 119.38 448.25 121.74 C 450.25 127.39 450.89 133.37 452.15 139.19 C 451.08 135.84 450.35 132.36 449.01 129.09 C 447.58 125.23 444.94 121.75 440.98 120.29 C 437.19 121.79 434.71 125.19 433.51 128.98 C 433.61 122.73 437.27 117.01 440.64 111.90 Z"></path>
<path fill="#000000" d=" M 339.45 112.45 C 341.28 117.65 344.16 122.64 349.05 125.52 C 356.48 120.15 365.87 117.61 374.97 118.98 C 389.89 120.68 403.61 131.01 408.73 145.22 C 411.73 154.47 412.34 164.44 411.19 174.06 C 409.12 185.27 402.35 197.08 390.47 199.80 C 386.81 199.81 383.09 199.32 379.84 197.53 C 377.79 196.17 375.86 194.64 374.10 192.94 C 372.36 190.87 370.87 188.62 369.55 186.28 C 368.64 184.51 367.86 182.67 367.17 180.81 C 366.38 178.47 365.75 176.08 365.28 173.66 C 364.34 166.92 364.08 159.86 366.53 153.40 C 370.33 158.43 376.44 162.58 383.02 161.44 C 387.46 160.79 390.46 156.38 390.22 152.04 C 389.61 144.34 383.45 138.09 376.27 135.91 C 378.43 134.17 380.64 132.32 383.36 131.52 C 387.25 130.19 391.36 131.23 395.30 131.76 C 393.94 130.76 392.59 129.75 391.19 128.81 C 385.32 124.56 378.43 121.17 371.03 121.30 C 363.21 121.01 355.58 124.63 350.31 130.30 C 343.55 137.43 340.28 147.23 339.54 156.89 C 332.68 156.93 325.20 154.22 321.92 147.78 C 326.98 150.76 332.44 153.88 338.57 152.56 C 338.55 149.29 338.59 146.00 339.25 142.78 C 332.22 141.23 324.96 136.66 323.70 129.04 C 326.25 131.88 328.69 135.08 332.35 136.57 C 334.91 137.83 337.83 137.57 340.60 137.77 C 342.01 134.36 344.13 131.34 346.13 128.26 C 341.51 124.41 338.79 118.50 339.45 112.45 Z"></path>
<path fill="#000000" d=" M 445.73 114.75 C 446.33 115.04 447.52 115.62 448.12 115.91 C 448.20 116.51 448.35 117.69 448.42 118.29 C 449.69 119.14 451.29 118.89 452.73 118.71 C 453.27 119.08 454.37 119.82 454.91 120.19 C 454.10 120.52 452.47 121.19 451.66 121.52 C 450.52 121.61 449.38 121.69 448.25 121.74 C 447.49 119.38 446.69 117.03 445.73 114.75 Z"></path>
<path fill="#7ea7d8" d=" M 448.12 115.91 C 449.81 116.56 451.31 117.58 452.73 118.71 C 451.29 118.89 449.69 119.14 448.42 118.29 C 448.35 117.69 448.20 116.51 448.12 115.91 Z"></path>
<path fill="#ffffff" d=" M 350.31 130.30 C 355.58 124.63 363.21 121.01 371.03 121.30 C 378.43 121.17 385.32 124.56 391.19 128.81 C 384.93 125.35 376.83 125.76 371.15 130.21 C 363.88 135.91 360.22 145.05 358.70 153.92 C 357.84 161.89 357.75 170.10 359.72 177.92 C 360.28 180.09 360.92 182.24 361.69 184.36 C 362.45 186.39 363.31 188.39 364.25 190.35 C 365.90 193.60 367.98 196.64 370.38 199.40 C 372.71 201.86 375.39 204.00 378.41 205.57 C 379.35 205.96 380.31 206.32 381.29 206.65 C 386.69 208.42 392.68 207.35 397.34 204.17 C 388.83 213.02 374.25 213.15 364.13 207.01 C 362.66 206.16 361.24 205.24 359.87 204.26 C 359.50 203.98 358.78 203.42 358.41 203.14 C 357.28 202.18 356.17 201.19 355.12 200.15 C 354.23 199.26 353.40 198.33 352.62 197.35 C 352.16 196.75 351.23 195.57 350.77 194.97 C 342.55 184.21 338.74 170.35 339.54 156.89 C 340.28 147.23 343.55 137.43 350.31 130.30 Z"></path>
<path fill="#153f00" d=" M 433.51 128.98 C 434.71 125.19 437.19 121.79 440.98 120.29 C 444.94 121.75 447.58 125.23 449.01 129.09 C 447.08 127.80 445.12 126.50 442.91 125.75 C 440.04 125.65 438.55 128.68 436.59 130.29 C 435.53 130.92 434.47 131.54 433.41 132.16 L 433.48 130.54 C 433.49 130.15 433.51 129.37 433.51 128.98 Z"></path>
<path fill="#7ea7d8" d=" M 448.25 121.74 C 449.38 121.69 450.52 121.61 451.66 121.52 C 455.93 132.12 457.20 143.66 457.25 155.01 C 456.73 167.59 455.49 180.49 450.23 192.10 C 453.85 193.18 457.86 193.66 460.95 196.01 C 464.21 199.25 461.67 204.00 460.41 207.59 C 454.88 222.03 442.21 232.98 427.58 237.58 C 405.94 244.51 382.54 241.59 361.02 235.65 C 365.12 257.46 367.74 280.18 362.66 302.07 C 358.97 319.12 349.15 334.86 334.79 344.94 C 332.62 381.26 334.85 418.33 345.95 453.18 C 347.29 457.84 349.76 462.18 350.40 467.03 C 350.28 471.71 345.77 474.57 341.79 475.92 C 332.22 478.91 321.96 478.98 312.14 477.34 C 313.74 482.94 315.90 488.38 317.26 494.06 C 318.27 497.65 315.75 501.05 312.77 502.77 C 306.82 506.35 299.72 506.99 293.01 508.00 L 279.47 508.00 C 272.16 507.11 264.68 506.28 257.83 503.37 C 254.13 501.77 250.19 499.17 249.42 494.90 C 243.33 467.78 239.59 439.73 242.85 411.96 C 244.92 392.02 251.67 373.06 257.57 354.04 C 255.61 353.43 253.65 352.82 251.70 352.22 C 236.41 384.83 230.81 422.81 239.81 457.98 C 241.04 463.43 244.87 470.25 240.07 475.01 C 234.00 480.41 225.18 480.40 217.51 480.54 C 218.67 485.29 219.87 491.11 216.15 495.08 C 210.53 501.06 201.70 502.00 193.96 502.43 C 184.65 502.62 175.25 501.46 166.35 498.66 C 162.79 497.38 158.80 495.93 156.66 492.60 C 154.99 486.89 155.06 480.82 154.39 474.94 C 150.41 434.01 161.51 393.66 173.97 355.09 C 174.86 352.38 176.49 349.52 179.41 348.65 C 182.18 348.03 185.05 348.56 187.85 348.68 C 184.42 329.97 175.36 312.31 175.35 293.02 C 175.13 280.91 179.56 269.30 184.92 258.65 C 185.36 257.88 186.23 256.35 186.66 255.58 C 187.60 253.99 188.57 252.43 189.54 250.86 C 175.05 237.24 159.51 224.33 141.71 215.22 C 132.08 210.48 121.22 206.62 110.35 208.48 C 101.50 209.98 94.32 216.50 90.26 224.27 C 82.32 239.13 80.52 256.46 81.46 273.06 C 82.78 293.06 89.24 312.17 94.66 331.32 C 100.50 350.48 106.04 369.90 107.73 389.93 C 109.08 402.94 108.30 416.10 106.21 428.98 C 103.66 443.88 97.31 458.59 86.11 469.01 C 79.05 475.75 70.24 480.16 61.40 484.05 C 49.27 482.44 37.34 477.92 27.64 470.38 C 22.96 466.52 18.31 461.42 18.07 455.03 C 17.79 450.11 20.78 445.78 24.25 442.59 C 25.61 446.30 26.71 450.48 29.99 453.01 C 33.08 455.76 37.46 455.56 41.27 456.39 C 50.71 459.42 61.25 457.04 68.98 451.01 C 80.95 441.92 86.92 427.24 90.06 412.97 C 96.04 385.47 90.01 357.23 82.46 330.67 C 76.90 309.29 69.69 288.14 67.81 266.00 C 66.80 252.82 67.47 239.32 71.70 226.70 C 75.08 215.85 81.32 205.10 91.63 199.58 C 100.58 194.51 111.33 194.44 121.25 195.85 C 132.29 197.81 142.78 202.16 152.68 207.33 C 164.11 213.42 174.86 220.85 184.47 229.54 C 188.87 233.48 192.76 237.96 195.99 242.91 C 197.07 242.04 198.14 241.18 199.23 240.33 C 200.82 239.09 202.43 237.88 204.11 236.77 C 204.51 236.54 205.30 236.08 205.69 235.85 C 206.28 235.55 207.47 234.97 208.06 234.68 C 209.36 234.09 210.69 233.55 212.04 233.06 C 225.09 228.82 239.58 230.53 251.93 236.20 C 261.54 240.50 269.62 247.51 279.25 251.76 C 279.45 253.35 279.55 254.95 279.65 256.57 C 268.92 252.09 260.03 244.28 249.40 239.61 C 235.29 233.37 217.60 232.47 204.44 241.45 C 192.18 250.08 185.82 264.48 181.44 278.34 C 179.89 282.45 179.79 286.86 179.38 291.18 C 179.85 291.64 180.78 292.54 181.24 293.00 C 181.10 296.02 181.20 299.28 183.23 301.73 C 182.48 301.19 181.00 300.11 180.25 299.57 C 180.34 301.33 180.46 303.08 180.62 304.84 C 183.69 322.10 191.75 338.30 192.79 355.94 C 193.27 359.49 191.54 362.65 189.45 365.35 C 188.93 361.42 188.63 357.47 188.47 353.52 C 185.71 353.02 182.72 351.68 179.97 352.89 C 177.60 355.38 177.15 359.02 176.04 362.15 C 167.32 389.73 159.55 417.96 157.94 446.99 C 157.00 460.34 158.22 473.72 159.71 486.99 C 160.06 488.57 159.88 490.61 161.39 491.64 C 165.02 494.36 169.59 495.27 173.92 496.29 C 184.79 498.62 196.40 499.51 207.13 496.06 C 210.97 494.79 215.29 491.60 214.49 487.02 C 213.60 480.55 211.50 474.32 210.32 467.90 C 205.51 444.36 202.67 419.73 207.94 396.01 C 211.96 377.71 221.42 361.31 227.95 343.88 C 230.35 337.38 232.25 330.71 234.06 324.03 C 235.34 319.47 235.89 314.69 237.98 310.39 C 239.19 319.82 236.70 329.18 234.41 338.26 C 241.99 343.30 250.16 347.61 258.95 350.11 C 260.47 345.57 261.59 340.86 263.81 336.58 C 264.80 340.31 265.09 344.28 263.98 348.03 C 257.85 369.52 249.81 390.64 247.23 412.98 C 244.21 439.99 247.25 467.34 253.44 493.70 C 254.41 498.15 259.35 499.61 263.12 500.90 C 275.52 504.29 288.75 504.66 301.39 502.46 C 305.69 501.37 311.17 500.51 313.37 496.14 C 312.73 491.70 310.94 487.56 309.67 483.29 C 298.02 446.43 293.60 407.56 294.16 368.99 C 294.32 358.86 294.18 348.71 295.12 338.62 C 298.59 343.20 298.86 348.97 298.64 354.49 C 312.65 351.90 326.56 346.78 337.52 337.45 C 349.22 327.51 356.49 313.08 359.29 298.12 C 363.34 277.00 360.71 255.27 356.47 234.40 C 350.81 231.75 344.28 230.70 339.42 226.58 C 337.30 224.93 336.52 222.30 335.79 219.85 C 339.83 222.39 343.73 225.25 348.29 226.79 C 363.96 232.46 380.34 236.62 397.05 237.28 C 412.65 237.83 429.25 235.20 441.99 225.57 C 437.87 224.55 433.36 223.85 430.13 220.86 C 425.42 216.51 423.13 209.71 424.25 203.40 C 427.29 206.53 426.93 211.33 429.07 214.98 C 431.88 220.79 439.01 222.97 445.04 222.45 C 446.86 221.59 448.14 219.95 449.40 218.44 C 453.87 212.73 457.29 206.07 458.62 198.90 C 450.50 196.16 440.66 195.28 435.32 187.69 C 432.92 184.93 433.34 181.21 434.50 178.01 C 436.96 183.76 441.25 188.80 447.19 191.09 C 450.28 183.00 452.42 174.49 452.71 165.80 C 453.86 156.96 453.59 147.98 452.15 139.19 C 450.89 133.37 450.25 127.39 448.25 121.74 Z"></path>
<path fill="#000000" d=" M 436.59 130.29 C 438.55 128.68 440.04 125.65 442.91 125.75 C 445.12 126.50 447.08 127.80 449.01 129.09 C 450.35 132.36 451.08 135.84 452.15 139.19 C 453.32 149.83 453.99 160.93 450.39 171.20 C 449.15 174.42 447.48 178.07 444.02 179.38 C 440.04 179.80 437.86 175.77 436.33 172.76 C 433.86 164.40 432.32 155.72 432.52 146.98 C 432.56 145.32 433.12 143.74 433.57 142.16 C 435.58 146.28 439.26 150.14 444.08 150.45 C 446.85 150.54 448.85 147.70 448.72 145.10 C 448.92 138.08 443.41 131.64 436.59 130.29 Z"></path>
<path fill="#153f00" d=" M 371.15 130.21 C 376.83 125.76 384.93 125.35 391.19 128.81 C 392.59 129.75 393.94 130.76 395.30 131.76 C 391.36 131.23 387.25 130.19 383.36 131.52 C 380.64 132.32 378.43 134.17 376.27 135.91 C 372.35 135.08 367.73 135.85 365.36 139.38 C 362.28 143.67 364.01 149.30 366.53 153.40 C 364.08 159.86 364.34 166.92 365.28 173.66 C 363.41 175.06 361.56 176.48 359.72 177.92 C 357.75 170.10 357.84 161.89 358.70 153.92 C 360.22 145.05 363.88 135.91 371.15 130.21 Z"></path>
<path fill="#287d0f" d=" M 430.88 139.17 L 432.45 139.61 C 432.82 140.46 433.18 141.31 433.57 142.16 C 433.12 143.74 432.56 145.32 432.52 146.98 C 432.32 155.72 433.86 164.40 436.33 172.76 C 435.64 172.62 434.27 172.34 433.58 172.20 C 430.33 161.56 429.43 150.19 430.88 139.17 Z"></path>
<path fill="#50ff2e" d=" M 452.15 139.19 C 453.59 147.98 453.86 156.96 452.71 165.80 C 451.60 171.98 450.51 179.09 445.45 183.38 C 440.45 186.69 436.40 180.30 434.70 176.33 C 434.35 174.95 433.96 173.56 433.58 172.20 C 434.27 172.34 435.64 172.62 436.33 172.76 C 437.86 175.77 440.04 179.80 444.02 179.38 C 447.48 178.07 449.15 174.42 450.39 171.20 C 453.99 160.93 453.32 149.83 452.15 139.19 Z"></path>
<path fill="#f49ac2" d=" M 60.53 151.20 C 82.42 145.51 105.39 149.97 126.61 156.36 C 144.41 161.60 161.13 170.68 174.79 183.29 C 190.14 197.43 201.71 215.06 212.04 233.06 C 210.69 233.55 209.36 234.09 208.06 234.68 C 197.31 215.41 184.53 196.79 167.53 182.49 C 155.52 172.44 141.33 165.18 126.38 160.63 C 112.65 156.36 98.46 153.15 84.04 152.80 C 73.86 153.26 63.36 153.66 53.88 157.83 C 40.70 163.06 30.73 174.46 25.37 187.38 C 20.27 199.94 17.87 213.48 17.35 226.98 C 16.12 247.05 16.49 267.96 24.11 286.87 C 28.78 298.90 37.59 308.76 42.16 320.83 C 45.31 329.14 46.30 338.12 46.17 346.97 C 45.90 352.63 45.62 358.65 42.60 363.64 C 40.47 367.30 36.30 369.78 32.01 369.41 C 28.09 369.07 24.75 366.72 21.56 364.62 C 18.49 360.28 16.94 355.21 14.93 350.36 L 14.74 351.34 C 13.14 353.68 11.46 355.97 10.12 358.47 C 4.12 367.97 2.12 380.26 6.22 390.88 C 10.46 401.75 19.93 409.77 30.16 414.87 C 39.23 419.17 49.67 421.69 59.66 419.67 C 64.90 418.73 68.65 414.74 72.51 411.43 C 74.07 424.61 68.47 437.89 58.60 446.58 C 53.81 451.38 47.44 453.90 41.27 456.39 C 37.46 455.56 33.08 455.76 29.99 453.01 C 26.71 450.48 25.61 446.30 24.25 442.59 C 20.78 445.78 17.79 450.11 18.07 455.03 C 18.31 461.42 22.96 466.52 27.64 470.38 C 37.34 477.92 49.27 482.44 61.40 484.05 C 78.00 487.32 95.93 485.09 110.82 476.86 C 124.99 468.96 134.94 454.82 139.45 439.41 C 145.06 421.69 142.25 402.71 137.83 385.06 C 132.31 363.26 123.75 342.40 116.99 320.99 C 112.98 308.32 109.55 295.34 108.72 282.03 C 108.38 271.76 110.17 260.90 116.31 252.41 C 122.99 242.80 134.07 235.92 145.96 235.85 C 159.26 235.75 171.44 242.39 181.73 250.27 C 183.67 251.74 185.20 253.65 186.66 255.58 C 186.23 256.35 185.36 257.88 184.92 258.65 C 174.10 248.64 160.31 239.74 145.03 240.18 C 134.74 240.23 125.55 246.67 119.70 254.77 C 115.32 260.91 114.17 268.63 113.78 275.98 C 113.38 286.81 115.53 297.54 118.06 308.02 C 125.28 337.82 138.92 365.75 144.46 396.00 C 148.03 413.40 147.85 432.12 140.52 448.57 C 133.38 466.61 117.71 481.02 99.01 486.34 C 75.36 493.15 48.76 489.25 28.03 475.99 C 20.77 471.38 14.47 463.91 13.79 455.05 C 13.45 446.02 20.54 438.85 27.83 434.61 C 28.52 439.13 28.26 444.17 31.07 448.05 C 34.45 452.18 40.69 452.27 45.28 450.31 C 57.27 445.30 66.01 433.72 68.17 420.97 C 55.80 427.12 41.13 424.56 29.06 418.94 C 14.94 412.39 2.65 400.01 0.00 384.20 L 0.00 372.58 C 1.52 367.46 3.12 362.32 5.69 357.62 C 9.66 350.20 15.25 343.82 20.91 337.65 C 20.65 343.36 18.87 349.32 20.99 354.88 C 22.60 359.45 26.13 363.71 30.93 365.05 C 33.68 365.93 36.75 364.67 38.41 362.39 C 40.82 359.13 41.58 354.99 41.73 351.03 C 42.06 341.53 42.12 331.65 38.18 322.79 C 33.34 309.67 23.80 298.93 19.20 285.70 C 12.78 267.61 11.71 248.05 13.08 229.04 C 13.86 209.96 17.13 190.11 27.97 173.97 C 35.50 162.64 47.37 154.52 60.53 151.20 Z"></path>
<path fill="#ff8088" d=" M 53.88 157.83 C 63.36 153.66 73.86 153.26 84.04 152.80 C 98.46 153.15 112.65 156.36 126.38 160.63 C 141.33 165.18 155.52 172.44 167.53 182.49 C 184.53 196.79 197.31 215.41 208.06 234.68 C 207.47 234.97 206.28 235.55 205.69 235.85 C 199.49 224.10 190.42 214.18 180.82 205.14 C 166.55 191.98 150.57 180.66 133.31 171.79 C 118.24 164.33 102.04 158.18 85.06 157.67 C 72.32 157.36 58.98 161.59 50.33 171.30 C 36.21 187.48 28.01 208.56 26.84 229.96 C 25.58 251.53 30.63 272.94 37.91 293.11 C 44.10 310.18 52.79 326.56 55.50 344.71 C 57.40 355.21 56.56 366.65 50.95 375.94 C 48.72 379.51 45.95 383.14 41.93 384.77 C 38.40 386.27 34.44 384.71 31.76 382.28 C 26.56 377.65 23.84 371.03 21.56 364.62 C 24.75 366.72 28.09 369.07 32.01 369.41 C 36.30 369.78 40.47 367.30 42.60 363.64 C 45.62 358.65 45.90 352.63 46.17 346.97 C 46.30 338.12 45.31 329.14 42.16 320.83 C 37.59 308.76 28.78 298.90 24.11 286.87 C 16.49 267.96 16.12 247.05 17.35 226.98 C 17.87 213.48 20.27 199.94 25.37 187.38 C 30.73 174.46 40.70 163.06 53.88 157.83 Z"></path>
<path fill="#fdc68a" d=" M 50.33 171.30 C 58.98 161.59 72.32 157.36 85.06 157.67 C 102.04 158.18 118.24 164.33 133.31 171.79 C 150.57 180.66 166.55 191.98 180.82 205.14 C 190.42 214.18 199.49 224.10 205.69 235.85 C 205.30 236.08 204.51 236.54 204.11 236.77 C 195.34 225.98 185.28 216.29 174.72 207.27 C 158.03 193.23 139.71 180.77 119.34 172.74 C 107.83 168.34 95.41 165.25 83.03 166.92 C 73.76 168.03 65.02 172.86 59.13 180.09 C 54.19 186.02 51.36 193.30 48.19 200.25 C 42.41 214.11 38.09 228.90 38.17 244.04 C 37.89 261.75 44.17 278.58 49.80 295.09 C 56.16 313.14 61.07 331.86 62.38 351.01 C 62.88 361.45 62.43 372.34 57.99 381.98 C 55.48 387.46 51.14 392.38 45.30 394.32 C 38.75 396.58 31.30 394.31 26.34 389.69 C 18.65 383.11 15.18 372.82 14.86 362.94 C 14.91 359.07 14.98 355.20 14.74 351.34 L 14.93 350.36 C 16.94 355.21 18.49 360.28 21.56 364.62 C 23.84 371.03 26.56 377.65 31.76 382.28 C 34.44 384.71 38.40 386.27 41.93 384.77 C 45.95 383.14 48.72 379.51 50.95 375.94 C 56.56 366.65 57.40 355.21 55.50 344.71 C 52.79 326.56 44.10 310.18 37.91 293.11 C 30.63 272.94 25.58 251.53 26.84 229.96 C 28.01 208.56 36.21 187.48 50.33 171.30 Z"></path>
<path fill="#fff79a" d=" M 59.13 180.09 C 65.02 172.86 73.76 168.03 83.03 166.92 C 95.41 165.25 107.83 168.34 119.34 172.74 C 139.71 180.77 158.03 193.23 174.72 207.27 C 185.28 216.29 195.34 225.98 204.11 236.77 C 202.43 237.88 200.82 239.09 199.23 240.33 C 188.32 228.06 175.98 217.12 162.93 207.18 C 150.76 198.16 137.81 189.95 123.63 184.49 C 112.72 180.47 100.58 177.97 89.13 181.18 C 78.93 183.84 70.65 191.43 65.43 200.40 C 59.12 210.93 56.20 223.01 53.77 234.93 C 51.01 249.32 50.51 264.28 53.42 278.70 C 57.93 302.30 71.87 322.99 75.34 346.89 C 77.32 359.47 76.87 372.38 74.62 384.89 C 73.29 391.86 69.52 398.55 63.56 402.57 C 57.06 406.99 48.73 408.19 41.09 406.73 C 30.22 404.80 19.77 398.71 13.83 389.25 C 9.80 383.01 7.97 375.38 8.80 368.00 C 9.15 364.81 9.61 361.64 10.12 358.47 C 11.46 355.97 13.14 353.68 14.74 351.34 C 14.98 355.20 14.91 359.07 14.86 362.94 C 15.18 372.82 18.65 383.11 26.34 389.69 C 31.30 394.31 38.75 396.58 45.30 394.32 C 51.14 392.38 55.48 387.46 57.99 381.98 C 62.43 372.34 62.88 361.45 62.38 351.01 C 61.07 331.86 56.16 313.14 49.80 295.09 C 44.17 278.58 37.89 261.75 38.17 244.04 C 38.09 228.90 42.41 214.11 48.19 200.25 C 51.36 193.30 54.19 186.02 59.13 180.09 Z"></path>
<path fill="#1f5e08" d=" M 359.72 177.92 C 361.56 176.48 363.41 175.06 365.28 173.66 C 365.75 176.08 366.38 178.47 367.17 180.81 C 365.34 181.99 363.51 183.18 361.69 184.36 C 360.92 182.24 360.28 180.09 359.72 177.92 Z"></path>
<path fill="#50fe2e" d=" M 390.47 199.80 C 402.35 197.08 409.12 185.27 411.19 174.06 C 409.83 185.13 406.52 196.99 397.34 204.17 C 392.68 207.35 386.69 208.42 381.29 206.65 C 384.26 204.26 387.22 201.82 390.47 199.80 Z"></path>
<path fill="#c4df9b" d=" M 89.13 181.18 C 100.58 177.97 112.72 180.47 123.63 184.49 C 137.81 189.95 150.76 198.16 162.93 207.18 C 175.98 217.12 188.32 228.06 199.23 240.33 C 198.14 241.18 197.07 242.04 195.99 242.91 C 192.76 237.96 188.87 233.48 184.47 229.54 C 174.86 220.85 164.11 213.42 152.68 207.33 C 142.78 202.16 132.29 197.81 121.25 195.85 C 111.33 194.44 100.58 194.51 91.63 199.58 C 81.32 205.10 75.08 215.85 71.70 226.70 C 67.47 239.32 66.80 252.82 67.81 266.00 C 69.69 288.14 76.90 309.29 82.46 330.67 C 90.01 357.23 96.04 385.47 90.06 412.97 C 86.92 427.24 80.95 441.92 68.98 451.01 C 61.25 457.04 50.71 459.42 41.27 456.39 C 47.44 453.90 53.81 451.38 58.60 446.58 C 68.47 437.89 74.07 424.61 72.51 411.43 C 68.65 414.74 64.90 418.73 59.66 419.67 C 49.67 421.69 39.23 419.17 30.16 414.87 C 19.93 409.77 10.46 401.75 6.22 390.88 C 2.12 380.26 4.12 367.97 10.12 358.47 C 9.61 361.64 9.15 364.81 8.80 368.00 C 7.97 375.38 9.80 383.01 13.83 389.25 C 19.77 398.71 30.22 404.80 41.09 406.73 C 48.73 408.19 57.06 406.99 63.56 402.57 C 69.52 398.55 73.29 391.86 74.62 384.89 C 76.87 372.38 77.32 359.47 75.34 346.89 C 71.87 322.99 57.93 302.30 53.42 278.70 C 50.51 264.28 51.01 249.32 53.77 234.93 C 56.20 223.01 59.12 210.93 65.43 200.40 C 70.65 191.43 78.93 183.84 89.13 181.18 Z"></path>
<path fill="#287d0f" d=" M 361.69 184.36 C 363.51 183.18 365.34 181.99 367.17 180.81 C 367.86 182.67 368.64 184.51 369.55 186.28 C 367.78 187.63 366.01 188.98 364.25 190.35 C 363.31 188.39 362.45 186.39 361.69 184.36 Z"></path>
<path fill="#00ff47" d=" M 364.25 190.35 C 366.01 188.98 367.78 187.63 369.55 186.28 C 370.87 188.62 372.36 190.87 374.10 192.94 C 372.86 195.09 371.62 197.24 370.38 199.40 C 367.98 196.64 365.90 193.60 364.25 190.35 Z"></path>
<path fill="#69ff4b" d=" M 374.10 192.94 C 375.86 194.64 377.79 196.17 379.84 197.53 C 379.35 200.21 378.88 202.89 378.41 205.57 C 375.39 204.00 372.71 201.86 370.38 199.40 C 371.62 197.24 372.86 195.09 374.10 192.94 Z"></path>
<path fill="#000000" d=" M 342.29 202.05 C 344.78 199.39 346.82 195.56 350.77 194.97 C 351.23 195.57 352.16 196.75 352.62 197.35 C 348.63 197.46 345.44 199.91 342.29 202.05 Z"></path>
<path fill="#48e528" d=" M 379.84 197.53 C 383.09 199.32 386.81 199.81 390.47 199.80 C 387.22 201.82 384.26 204.26 381.29 206.65 C 380.31 206.32 379.35 205.96 378.41 205.57 C 378.88 202.89 379.35 200.21 379.84 197.53 Z"></path>
<path fill="#7eb7d7" d=" M 442.69 203.99 C 442.55 201.13 444.17 197.82 447.35 197.56 C 446.53 199.69 445.69 201.81 444.92 203.96 C 447.15 203.96 449.39 203.92 451.63 203.87 C 450.56 207.69 444.00 207.45 442.69 203.99 Z"></path>
<path fill="#000000" d=" M 346.20 210.14 C 346.80 205.22 350.75 201.87 355.12 200.15 C 356.17 201.19 357.28 202.18 358.41 203.14 C 353.61 203.94 349.19 206.24 346.20 210.14 Z"></path>
<path fill="#000000" d=" M 352.48 217.78 C 353.46 212.62 355.14 207.23 359.87 204.26 C 361.24 205.24 362.66 206.16 364.13 207.01 C 358.33 207.90 355.39 213.34 352.48 217.78 Z"></path>
<path fill="#bc8dbf" d=" M 110.35 208.48 C 121.22 206.62 132.08 210.48 141.71 215.22 C 159.51 224.33 175.05 237.24 189.54 250.86 C 188.57 252.43 187.60 253.99 186.66 255.58 C 185.20 253.65 183.67 251.74 181.73 250.27 C 171.44 242.39 159.26 235.75 145.96 235.85 C 134.07 235.92 122.99 242.80 116.31 252.41 C 110.17 260.90 108.38 271.76 108.72 282.03 C 109.55 295.34 112.98 308.32 116.99 320.99 C 123.75 342.40 132.31 363.26 137.83 385.06 C 142.25 402.71 145.06 421.69 139.45 439.41 C 134.94 454.82 124.99 468.96 110.82 476.86 C 95.93 485.09 78.00 487.32 61.40 484.05 C 70.24 480.16 79.05 475.75 86.11 469.01 C 97.31 458.59 103.66 443.88 106.21 428.98 C 108.30 416.10 109.08 402.94 107.73 389.93 C 106.04 369.90 100.50 350.48 94.66 331.32 C 89.24 312.17 82.78 293.06 81.46 273.06 C 80.52 256.46 82.32 239.13 90.26 224.27 C 94.32 216.50 101.50 209.98 110.35 208.48 Z"></path>
<path fill="#ffffa6" d=" M 209.89 274.33 C 210.91 270.76 211.33 266.91 213.34 263.71 C 214.57 267.22 215.54 270.81 216.59 274.38 C 214.35 274.37 212.12 274.35 209.89 274.33 Z"></path>
<path fill="#ffffa6" d=" M 194.29 265.09 C 197.02 267.94 199.91 270.66 202.21 273.89 C 200.28 274.86 198.36 275.82 196.43 276.79 C 195.50 272.93 194.93 269.00 194.29 265.09 Z"></path>
<path fill="#ffffa6" d=" M 222.85 274.86 C 224.54 271.41 226.51 268.11 228.54 264.85 C 228.93 268.75 229.25 272.66 229.33 276.59 C 227.16 276.02 225.00 275.45 222.85 274.86 Z"></path>
<path fill="#ffffa6" d=" M 232.95 278.81 C 235.81 276.31 238.77 273.90 241.96 271.82 C 240.98 275.54 239.66 279.16 238.27 282.75 C 236.50 281.43 234.72 280.12 232.95 278.81 Z"></path>
<path fill="#ffffa6" d=" M 183.90 273.98 C 186.70 274.99 189.45 276.13 192.18 277.33 C 190.98 279.23 189.44 280.90 187.53 282.10 C 186.18 279.46 184.96 276.75 183.90 273.98 Z"></path>
<path fill="#ffff58" d=" M 197.58 279.39 C 207.50 276.13 218.64 275.34 228.49 279.26 C 233.08 281.09 237.53 284.79 238.18 289.96 C 238.61 295.02 235.23 299.51 231.29 302.30 C 222.87 308.27 212.18 310.28 202.02 309.66 C 195.13 309.30 187.85 307.13 183.23 301.73 C 181.20 299.28 181.10 296.02 181.24 293.00 C 183.94 285.96 190.74 281.71 197.58 279.39 Z"></path>
<path fill="#e5feaf" d=" M 180.93 283.02 C 181.88 281.23 184.56 282.26 186.20 281.72 C 185.21 283.76 184.14 285.76 182.97 287.71 C 182.20 286.19 180.98 284.79 180.93 283.02 Z"></path>
<path fill="#7ff8d5" d=" M 203.49 283.69 C 210.22 282.15 217.39 281.95 224.08 283.85 C 227.35 284.87 230.95 286.53 232.29 289.94 C 232.82 293.25 230.17 295.94 227.72 297.73 C 220.85 302.49 212.26 304.13 204.02 303.99 C 198.52 303.61 192.32 302.87 188.34 298.62 C 186.28 296.51 187.12 293.00 189.06 291.10 C 192.87 287.11 198.24 285.04 203.49 283.69 Z"></path>
<path fill="#ffffa6" d=" M 239.31 284.70 C 243.05 284.78 246.79 285.03 250.51 285.44 C 247.52 287.66 244.26 289.49 240.98 291.24 C 240.32 289.08 239.76 286.90 239.31 284.70 Z"></path>
<path fill="#ffffa6" d=" M 239.16 295.35 C 241.99 297.76 244.76 300.23 247.30 302.95 C 243.56 302.78 239.88 302.11 236.23 301.36 C 237.20 299.35 238.17 297.35 239.16 295.35 Z"></path>
<path fill="#eafeae" d=" M 180.25 299.57 C 181.00 300.11 182.48 301.19 183.23 301.73 C 183.48 302.81 183.73 303.90 183.98 304.99 C 183.14 304.95 181.46 304.88 180.62 304.84 C 180.46 303.08 180.34 301.33 180.25 299.57 Z"></path>
<path fill="#ffffa6" d=" M 226.50 308.43 C 226.17 306.20 229.87 305.45 231.18 303.94 C 232.65 307.51 234.05 311.12 235.10 314.85 C 232.24 312.69 229.18 310.80 226.50 308.43 Z"></path>
<path fill="#ffffa6" d=" M 184.82 318.21 C 185.56 314.46 186.51 310.76 187.59 307.10 C 189.43 308.20 191.28 309.30 193.13 310.41 C 190.78 313.43 187.85 315.90 184.82 318.21 Z"></path>
<path fill="#ffffa5" d=" M 213.25 311.40 C 215.38 310.77 217.55 310.31 219.74 309.92 C 219.70 313.67 219.65 317.43 219.42 321.18 C 217.10 318.09 215.26 314.68 213.25 311.40 Z"></path>
<path fill="#ffffa6" d=" M 199.38 311.23 C 201.59 311.59 203.78 312.06 205.97 312.57 C 204.17 315.90 202.64 319.44 200.09 322.29 C 199.71 318.61 199.56 314.92 199.38 311.23 Z"></path>
<path fill="#7fdbd5" d=" M 233.10 342.77 C 237.99 345.30 242.74 348.07 247.74 350.38 C 231.45 386.24 225.84 428.10 237.79 466.11 C 238.65 468.48 238.58 471.71 236.02 472.99 C 230.11 476.29 222.95 476.75 216.34 476.02 C 210.68 451.00 206.39 424.83 211.44 399.32 C 215.34 379.31 226.57 361.89 233.10 342.77 Z"></path>
<path fill="#7fdbd5" d=" M 314.69 354.65 C 320.08 352.93 325.11 350.36 330.21 347.94 C 330.66 353.64 329.91 359.32 329.79 365.01 C 329.67 398.89 333.58 433.27 345.77 465.08 C 347.45 468.87 343.13 471.30 340.10 472.13 C 332.08 474.37 323.54 474.84 315.31 473.60 C 313.45 473.14 310.72 473.21 310.36 470.81 C 300.26 434.53 297.34 396.61 298.38 359.07 C 303.76 357.40 309.38 356.57 314.69 354.65 Z"></path>
</svg>
